<svg width="24" height="24" viewBox="0 0 24 24" fill="none" xmlns="http://www.w3.org/2000/svg">
<path d="M3 22C2.44772 22 2 21.5523 2 21V16.4142C2 16.149 2.10536 15.8946 2.29289 15.7071L11.5858 6.41418C11.9763 6.02366 12.6095 6.02366 13 6.41418L17.5858 11C17.9763 11.3905 17.9763 12.0237 17.5858 12.4142L8.29289 21.7071C8.10536 21.8946 7.851 22 7.58579 22H3Z" fill="black"/>
<path d="M19 9.58576C19.3905 9.97628 20.0237 9.97628 20.4142 9.58576L22.2929 7.70708C22.6834 7.31655 22.6834 6.68339 22.2929 6.29286L17.7071 1.70708C17.3166 1.31655 16.6834 1.31655 16.2929 1.70708L14.4142 3.58576C14.0237 3.97628 14.0237 4.60945 14.4142 4.99997L19 9.58576Z" fill="black"/>
</svg>
