<svg width="24" height="24" viewBox="0 0 24 24" fill="none" xmlns="http://www.w3.org/2000/svg">
<path fill-rule="evenodd" clip-rule="evenodd" d="M14.6122 17.4406C14.2895 17.1179 13.7919 17.0609 13.3783 17.2538C12.352 17.7326 11.2072 18 10 18C5.58172 18 2 14.4183 2 10C2 5.58172 5.58172 2 10 2C14.4183 2 18 5.58172 18 10C18 11.2072 17.7326 12.352 17.2538 13.3783C17.0609 13.7919 17.1179 14.2895 17.4406 14.6122L21.7071 18.8787C22.0976 19.2692 22.0976 19.9024 21.7071 20.2929L20.2929 21.7071C19.9024 22.0976 19.2692 22.0976 18.8787 21.7071L14.6122 17.4406ZM14 10C14 12.2091 12.2091 14 10 14C7.79086 14 6 12.2091 6 10C6 7.79086 7.79086 6 10 6C12.2091 6 14 7.79086 14 10Z" fill="black"/>
</svg>
