<svg width="24" height="24" viewBox="0 0 24 24" fill="none" xmlns="http://www.w3.org/2000/svg">
<path d="M1 5C1 4.44772 1.44772 4 2 4H13C13.5523 4 14 4.44772 14 5V7C14 7.55228 13.5523 8 13 8H2C1.44772 8 1 7.55228 1 7V5Z" fill="black"/>
<path d="M1 11C1 10.4477 1.44772 10 2 10H9C9.55228 10 10 10.4477 10 11V13C10 13.5523 9.55228 14 9 14H2C1.44772 14 1 13.5523 1 13V11Z" fill="black"/>
<path d="M1 17C1 16.4477 1.44772 16 2 16H6C6.55228 16 7 16.4477 7 17V19C7 19.5523 6.55228 20 6 20H2C1.44772 20 1 19.5523 1 19V17Z" fill="black"/>
<path d="M19 4H17C16.4477 4 16 4.44772 16 5V16H13.2854C12.8294 16 12.6114 16.5604 12.9475 16.8686L17.3243 20.8806C17.7066 21.231 18.2934 21.231 18.6757 20.8806L23.0525 16.8686C23.3886 16.5604 23.1706 16 22.7146 16H20V5C20 4.44772 19.5523 4 19 4Z" fill="black"/>
</svg>
