<svg aria-hidden="true" style="position: absolute; width: 0; height: 0; overflow: hidden;" version="1.1" xmlns="http://www.w3.org/2000/svg" xmlns:xlink="http://www.w3.org/1999/xlink">
<defs>
<symbol id="icon-search" viewBox="0 0 24 24">
<path d="M14.612 17.441l4.266 4.266c0.39 0.39 1.024 0.39 1.414 0l1.414-1.414c0.39-0.39 0.39-1.024 0-1.414l-4.266-4.266c-0.323-0.323-0.38-0.82-0.187-1.234 0.479-1.026 0.746-2.171 0.746-3.378 0-4.418-3.582-8-8-8s-8 3.582-8 8c0 4.418 3.582 8 8 8 1.207 0 2.352-0.267 3.378-0.746 0.414-0.193 0.911-0.136 1.234 0.187zM14 10c0 2.209-1.791 4-4 4s-4-1.791-4-4c0-2.209 1.791-4 4-4s4 1.791 4 4z"></path>
</symbol>
<symbol id="icon-calendar" viewBox="0 0 24 24">
<path d="M2 4c0-1.105 0.895-2 2-2h16c1.105 0 2 0.895 2 2v1c0 0.552-0.448 1-1 1h-18c-0.552 0-1-0.448-1-1v-1z"></path>
<path d="M21 8c0.552 0 1 0.448 1 1v11c0 1.105-0.895 2-2 2h-16c-1.105 0-2-0.895-2-2v-11c0-0.552 0.448-1 1-1h18zM7 11c0-0.552-0.448-1-1-1s-1 0.448-1 1c0 0.552 0.448 1 1 1s1-0.448 1-1zM11 11c0-0.552-0.448-1-1-1s-1 0.448-1 1c0 0.552 0.448 1 1 1s1-0.448 1-1zM14 12c0.552 0 1-0.448 1-1s-0.448-1-1-1c-0.552 0-1 0.448-1 1s0.448 1 1 1zM19 11c0-0.552-0.448-1-1-1s-1 0.448-1 1c0 0.552 0.448 1 1 1s1-0.448 1-1zM6 16c0.552 0 1-0.448 1-1s-0.448-1-1-1c-0.552 0-1 0.448-1 1s0.448 1 1 1zM10 16c0.552 0 1-0.448 1-1s-0.448-1-1-1c-0.552 0-1 0.448-1 1s0.448 1 1 1zM15 15c0-0.552-0.448-1-1-1s-1 0.448-1 1c0 0.552 0.448 1 1 1s1-0.448 1-1zM18 16c0.552 0 1-0.448 1-1s-0.448-1-1-1c-0.552 0-1 0.448-1 1s0.448 1 1 1zM7 19c0-0.552-0.448-1-1-1s-1 0.448-1 1c0 0.552 0.448 1 1 1s1-0.448 1-1zM11 19c0-0.552-0.448-1-1-1s-1 0.448-1 1c0 0.552 0.448 1 1 1s1-0.448 1-1z"></path>
</symbol>
<symbol id="icon-filter" viewBox="0 0 24 24">
<path d="M20 3h-16c-0.552 0-1 0.448-1 1v2.26c0 0.477 0.171 0.939 0.482 1.302l4.796 5.596c0.466 0.544 0.722 1.236 0.722 1.952v6.272c0 0.743 0.782 1.227 1.447 0.894l4-2c0.339-0.169 0.553-0.516 0.553-0.894v-4.272c0-0.716 0.256-1.409 0.722-1.952l4.796-5.596c0.311-0.362 0.482-0.824 0.482-1.302v-2.26c0-0.552-0.448-1-1-1z"></path>
</symbol>
<symbol id="icon-heart" viewBox="0 0 24 24">
<path d="M10.666 4.745c-2.211-2.327-5.796-2.327-8.007 0s-2.211 6.099 0 8.425l7.892 8.304c0.789 0.83 2.111 0.83 2.899 0l7.892-8.304c2.211-2.327 2.211-6.099 0-8.425s-5.796-2.327-8.007 0l-1.335 1.404-1.335-1.404z"></path>
</symbol>
<symbol id="icon-pencil" viewBox="0 0 24 24">
<path d="M3 22c-0.552 0-1-0.448-1-1v-4.586c0-0.265 0.105-0.52 0.293-0.707l9.293-9.293c0.39-0.391 1.024-0.391 1.414 0l4.586 4.586c0.39 0.39 0.39 1.024 0 1.414l-9.293 9.293c-0.188 0.188-0.442 0.293-0.707 0.293h-4.586z"></path>
<path d="M19 9.586c0.39 0.391 1.024 0.391 1.414 0l1.879-1.879c0.39-0.391 0.39-1.024 0-1.414l-4.586-4.586c-0.39-0.391-1.024-0.391-1.414 0l-1.879 1.879c-0.39 0.391-0.39 1.024 0 1.414l4.586 4.586z"></path>
</symbol>
<symbol id="icon-random" viewBox="0 0 24 24">
<path d="M10 1c-1.105 0-2 0.895-2 2v1.781l2.297 0.615c-0.186-0.25-0.297-0.56-0.297-0.896 0-0.828 0.672-1.5 1.5-1.5s1.5 0.672 1.5 1.5c0 0.617-0.373 1.147-0.906 1.378l5.048 1.353c0.395 0.106 0.755 0.275 1.074 0.494 0.263-0.434 0.739-0.724 1.284-0.724 0.828 0 1.5 0.672 1.5 1.5 0 0.767-0.576 1.4-1.319 1.489 0.060 0.333 0.073 0.678 0.032 1.026 0.727 0.103 1.287 0.729 1.287 1.485 0 0.828-0.672 1.5-1.5 1.5-0.184 0-0.36-0.033-0.523-0.094l-0.561 2.094h2.584c1.105 0 2-0.895 2-2v-11c0-1.105-0.895-2-2-2h-11zM21 4.5c0 0.828-0.672 1.5-1.5 1.5s-1.5-0.672-1.5-1.5 0.672-1.5 1.5-1.5c0.828 0 1.5 0.672 1.5 1.5z"></path>
<path d="M3.679 7.246c0.286-1.067 1.383-1.7 2.45-1.414l10.625 2.847c1.067 0.286 1.7 1.383 1.414 2.45l-2.847 10.625c-0.286 1.067-1.383 1.7-2.449 1.414l-10.625-2.847c-1.067-0.286-1.7-1.383-1.414-2.449l2.847-10.625zM8.12 9.989c0.214-0.8-0.26-1.623-1.061-1.837s-1.623 0.26-1.837 1.061c-0.214 0.8 0.26 1.623 1.061 1.837s1.623-0.26 1.837-1.061zM9.112 15.949c0.8 0.214 1.623-0.26 1.837-1.061s-0.261-1.623-1.061-1.837c-0.8-0.215-1.623 0.26-1.837 1.061s0.26 1.623 1.061 1.837zM13.777 19.787c0.214-0.8-0.26-1.623-1.061-1.837s-1.623 0.261-1.837 1.061c-0.214 0.8 0.26 1.623 1.061 1.837s1.623-0.261 1.837-1.061z"></path>
</symbol>
<symbol id="icon-sort" viewBox="0 0 24 24">
<path d="M1 5c0-0.552 0.448-1 1-1h11c0.552 0 1 0.448 1 1v2c0 0.552-0.448 1-1 1h-11c-0.552 0-1-0.448-1-1v-2z"></path>
<path d="M1 11c0-0.552 0.448-1 1-1h7c0.552 0 1 0.448 1 1v2c0 0.552-0.448 1-1 1h-7c-0.552 0-1-0.448-1-1v-2z"></path>
<path d="M1 17c0-0.552 0.448-1 1-1h4c0.552 0 1 0.448 1 1v2c0 0.552-0.448 1-1 1h-4c-0.552 0-1-0.448-1-1v-2z"></path>
<path d="M19 4h-2c-0.552 0-1 0.448-1 1v11h-2.715c-0.456 0-0.674 0.56-0.338 0.869l4.377 4.012c0.382 0.35 0.969 0.35 1.351 0l4.377-4.012c0.336-0.308 0.118-0.869-0.338-0.869h-2.715v-11c0-0.552-0.448-1-1-1z"></path>
</symbol>
</defs>
</svg>
