<svg width="864" height="240" viewBox="0 0 864 240" fill="none" xmlns="http://www.w3.org/2000/svg">
<path fill-rule="evenodd" clip-rule="evenodd" d="M265.883 31.7624C275.224 62.2749 229.834 74.4285 223.827 42.598C223.594 40.7516 223.601 38.8828 223.848 37.0383C219.178 37.318 216.28 37.3037 214.766 37.2488C214.394 37.2348 214.04 37.0879 213.768 36.8349C213.496 36.5818 213.323 36.2394 213.282 35.8698C213.235 35.4885 213.316 35.1025 213.511 34.7716C213.706 34.4406 214.004 34.1833 214.36 34.0393C215.363 33.4767 216.552 33.0786 217.752 32.6762C220.363 31.8014 223.033 30.9069 223.984 28.26C225.889 22.0108 232.67 3.93966 245.623 2.31864C258.297 0.737288 267.92 8.41119 271.096 11.3929C272.836 13.0027 271.229 15.9844 268.992 15.838C267.447 15.8061 265.901 15.7766 264.352 15.7495C264.21 15.7458 264.069 15.7702 263.937 15.8212C263.804 15.8722 263.683 15.9488 263.58 16.0467C263.478 16.1445 263.395 16.2617 263.338 16.3915C263.28 16.5213 263.249 16.6611 263.245 16.8031C265.377 25.0862 266.355 25.1825 271.849 25.7235C273.011 25.8379 274.374 25.9721 275.993 26.2078C276.362 26.2571 276.704 26.4301 276.962 26.6985C277.221 26.967 277.381 27.3152 277.416 27.6862C277.451 28.0573 277.36 28.4294 277.157 28.7419C276.954 29.0544 276.651 29.2889 276.298 29.4071C274.662 29.882 271.356 30.7292 265.883 31.7624ZM252.326 34.0281C257.236 33.5136 257.932 40.7492 253.123 41.397C248.222 41.8983 247.515 34.678 252.326 34.0281ZM250.826 46.4136C249.666 47.6215 248.133 48.4032 246.475 48.6325C244.827 48.8381 243.16 48.4716 241.75 47.5942C241.283 47.3351 240.736 47.2602 240.217 47.3844C239.698 47.5087 239.244 47.823 238.946 48.2654C236.979 52.2102 244.376 53.222 246.957 52.8417C249.555 52.5102 256.405 49.7573 253.812 46.3729C253.614 46.1792 253.379 46.0265 253.121 45.9237C252.864 45.8209 252.588 45.7699 252.311 45.7737C252.033 45.7775 251.76 45.836 251.505 45.9457C251.25 46.0555 251.019 46.2145 250.826 46.4136ZM237.508 35.9207C242.417 35.3583 243.171 42.5929 238.369 43.2844C233.466 43.8427 232.701 36.6112 237.508 35.9207Z" fill="white"/>
<path d="M215.906 163.02C216.216 162.57 216.34 162.017 216.25 161.478L215.004 152.569C214.975 152.302 214.893 152.043 214.763 151.808C214.633 151.572 214.457 151.366 214.246 151.2C214.035 151.034 213.792 150.912 213.533 150.841C213.274 150.77 213.003 150.752 212.737 150.787C212.227 150.81 211.618 150.942 210.982 151.08C209.086 151.491 206.949 151.955 206.458 149.737C199.468 110.493 192.384 71.2661 185.206 32.0553C184.991 29.7583 186.909 29.5079 188.831 29.2569C190.736 29.0081 192.647 28.7587 192.488 26.5139C192.482 26.5166 192.273 25.0271 192.042 23.3843C191.758 21.3579 191.441 19.0984 191.432 19.1186C191.333 18.5728 191.022 18.0885 190.566 17.7723C190.11 17.4561 189.548 17.3339 189.002 17.4325C174.934 19.7349 160.892 22.2349 146.877 24.9325C146.362 25.0319 145.879 25.25 145.463 25.5693C145.048 25.8887 144.713 26.3006 144.485 26.7722C132.699 51.4136 121.536 76.1637 110.998 101.023C91.8975 82.8736 72.2569 65.1081 52.0766 47.7264C51.6828 47.3935 51.2141 47.1612 50.7107 47.0494C50.2073 46.9376 49.6844 46.9497 49.1868 47.0847C35.3262 50.7051 21.5056 54.5247 7.72493 58.5437C7.17248 58.7005 6.70148 59.0638 6.40949 59.5585C6.11751 60.0532 6.02693 60.6413 6.15651 61.201L7.99429 68.3563C8.72884 70.4866 10.5677 69.8786 12.4001 69.2727C14.2521 68.6603 16.0975 68.0501 16.7898 70.2712C25.1635 109.202 33.6317 148.109 42.1945 186.994C42.571 189.191 40.6816 189.652 38.7964 190.112C36.8899 190.576 34.9877 191.04 35.438 193.299C35.4575 193.302 35.9509 195.239 36.4735 197.292C37.0644 199.612 37.6927 202.08 37.7159 202.065C37.8532 202.571 38.1857 203.001 38.6403 203.262C39.0949 203.523 39.6344 203.592 40.1402 203.455C56.1028 198.745 72.1231 194.326 88.2009 190.197C88.7269 190.041 89.1728 189.689 89.4461 189.213C89.7194 188.737 89.7991 188.174 89.6687 187.641L87.7059 178.88C87.0777 176.679 85.2142 177.249 83.35 177.819C81.4889 178.388 79.627 178.957 78.9927 176.769L63.7457 110.279C63.6967 110.067 63.7138 109.844 63.7946 109.642C63.8755 109.439 64.0162 109.267 64.1979 109.146C64.3796 109.026 64.5938 108.964 64.8116 108.969C65.0294 108.974 65.2406 109.045 65.4167 109.174C84.8266 124.757 103.736 140.698 122.145 156.995C132.754 134.106 143.942 111.34 155.71 88.6963C155.809 88.5032 155.966 88.346 156.158 88.2466C156.351 88.1473 156.57 88.1109 156.785 88.1426C156.999 88.1742 157.199 88.2723 157.355 88.423C157.51 88.5738 157.615 88.7696 157.654 88.9831C161.449 111.438 165.247 133.893 169.049 156.347C169.318 158.606 167.396 158.901 165.475 159.195C163.551 159.49 161.628 159.785 161.906 162.053C162.421 165.005 162.936 167.957 163.451 170.908C163.488 171.173 163.577 171.428 163.714 171.658C163.851 171.888 164.032 172.088 164.248 172.246C164.463 172.405 164.708 172.518 164.968 172.58C165.228 172.642 165.498 172.652 165.762 172.608C181.999 169.41 198.274 166.503 214.586 163.886C215.122 163.78 215.595 163.469 215.906 163.02Z" fill="white"/>
<path d="M288.132 153.971C288.463 153.538 288.611 152.992 288.544 152.451L287.747 144.017C287.415 141.823 285.546 142.055 283.46 142.315C280.864 142.637 277.933 143.002 277.219 138.777C274.898 115.465 272.577 92.1519 270.255 68.8373C270.206 68.2922 269.944 67.7886 269.524 67.437C269.105 67.0854 268.564 66.9146 268.019 66.962C253.174 69.6468 238.376 72.5485 223.625 75.6671C223.101 75.7834 222.639 76.0921 222.33 76.5325C222.022 76.9728 221.89 77.5128 221.96 78.0458L223.186 87.5217C223.749 90.0333 226.247 89.361 228.497 88.7553C229.409 88.5097 230.28 88.2752 230.965 88.2681C231.381 88.1922 231.808 88.2028 232.22 88.2993C232.631 88.3959 233.018 88.5763 233.357 88.8293C233.696 89.0823 233.979 89.4024 234.188 89.7697C234.398 90.137 234.529 90.5436 234.575 90.9641C236.717 108.426 238.858 125.888 240.999 143.35C241.323 147.766 237.936 148.132 234.91 148.46C232.468 148.724 230.261 148.962 230.428 151.282L231.519 159.68C231.544 159.947 231.622 160.207 231.749 160.443C231.875 160.679 232.048 160.888 232.256 161.057C232.465 161.226 232.705 161.351 232.962 161.426C233.219 161.5 233.489 161.523 233.755 161.492C251.396 158.915 269.069 156.675 286.775 154.769C287.314 154.691 287.801 154.405 288.132 153.971Z" fill="white"/>
<path d="M361.556 146.642C361.427 143.82 361.294 140.997 361.159 138.174C360.933 135.968 359.055 136.1 356.959 136.249C354.35 136.433 351.403 136.641 350.891 132.385C349.647 108.979 348.403 85.5719 347.158 62.1651C347.145 61.8785 347.073 61.5977 346.947 61.3402C346.82 61.0827 346.642 60.8541 346.423 60.6687C346.205 60.4833 345.95 60.3451 345.675 60.2628C345.401 60.1804 345.112 60.1557 344.827 60.1902C329.943 62.0824 315.1 64.1997 300.298 66.542C299.769 66.6315 299.294 66.9164 298.966 67.3403C298.638 67.7642 298.481 68.296 298.527 68.8302L299.314 78.359C299.728 80.7757 302.022 80.3497 304.434 79.9019C307.165 79.3947 310.048 78.8594 310.522 82.3942C311.857 99.9475 313.191 117.501 314.524 135.054C314.647 139.484 311.244 139.673 308.206 139.842C305.756 139.978 303.542 140.101 303.606 142.425C303.841 145.237 304.075 148.051 304.309 150.865C304.322 151.134 304.388 151.396 304.503 151.639C304.618 151.881 304.779 152.099 304.979 152.278C305.178 152.458 305.411 152.596 305.664 152.685C305.917 152.775 306.186 152.813 306.453 152.798C324.179 151.147 341.922 149.837 359.683 148.865C360.225 148.815 360.725 148.554 361.076 148.138C361.426 147.722 361.599 147.185 361.556 146.642Z" fill="white"/>
<path d="M727.343 160.167C731.601 137.167 735.858 114.167 740.113 91.1654C740.165 90.8808 740.159 90.5888 740.096 90.3065C740.033 90.0243 739.914 89.7575 739.746 89.5218C739.579 89.2862 739.366 89.0866 739.12 88.9347C738.874 88.7828 738.6 88.6817 738.314 88.6373C723.423 86.5125 708.523 84.6193 693.615 82.9576C693.087 82.9005 692.557 83.0505 692.137 83.3762C691.717 83.7018 691.44 84.1777 691.363 84.7037L689.903 94.142C689.761 96.5998 692.089 96.795 694.53 96.9997C697.275 97.2299 700.163 97.4722 699.847 100.956L691.426 153.091C690.649 157.462 686.644 156.632 683.273 155.934C682.617 155.798 681.985 155.667 681.405 155.58C681.14 155.54 680.869 155.554 680.609 155.621C680.349 155.687 680.105 155.805 679.891 155.968C679.678 156.131 679.499 156.335 679.366 156.568C679.232 156.801 679.147 157.058 679.115 157.325L677.825 165.691C677.727 166.229 677.841 166.785 678.145 167.24C678.448 167.695 678.917 168.015 679.451 168.131C697.027 171.238 714.555 174.684 732.033 178.469C732.296 178.519 732.566 178.514 732.826 178.457C733.087 178.4 733.334 178.291 733.552 178.137C733.77 177.983 733.955 177.786 734.096 177.559C734.236 177.332 734.33 177.079 734.371 176.815L735.963 168.508C736.301 166.201 734.142 165.846 732.208 165.528C731.58 165.425 730.975 165.326 730.488 165.165C729.42 164.9 728.496 164.232 727.909 163.3C727.323 162.368 727.12 161.246 727.343 160.167Z" fill="white"/>
<path d="M744.134 60.8013C744.077 60.5311 743.968 60.2747 743.812 60.0468C738.785 52.6298 733.672 45.2268 728.5 37.8641C728.176 37.3957 727.681 37.0725 727.123 36.9635C726.564 36.8545 725.984 36.9682 725.508 37.2803C718.226 42.2125 711.006 47.1956 703.848 52.2295C703.622 52.3917 703.43 52.5971 703.284 52.8339C703.138 53.0706 703.04 53.3341 702.996 53.6089C702.952 53.8837 702.963 54.1645 703.029 54.435C703.094 54.7055 703.213 54.9603 703.377 55.1847C708.564 62.458 713.678 69.7556 718.719 77.0776C718.873 77.3076 719.07 77.5049 719.301 77.6582C719.531 77.8114 719.79 77.9176 720.061 77.9706C720.333 78.0236 720.612 78.0224 720.883 77.9671C721.154 77.9117 721.412 77.8033 721.641 77.6481C728.786 72.7024 735.993 67.8092 743.262 62.9685C743.49 62.8128 743.685 62.6137 743.836 62.3826C743.987 62.1515 744.091 61.8929 744.142 61.6216C744.193 61.3503 744.19 61.0716 744.134 60.8013Z" fill="white"/>
<path fill-rule="evenodd" clip-rule="evenodd" d="M299.859 33.2085C299.617 28.9982 300.501 24.7995 302.42 21.0447C295.156 14.3949 296.922 7.73797 300.502 3.41695C300.644 3.26407 300.827 3.15578 301.03 3.10525C301.232 3.05472 301.445 3.06412 301.642 3.13232C301.839 3.20052 302.012 3.32457 302.14 3.48938C302.268 3.6542 302.346 3.85268 302.363 4.06068C302.927 8.29729 305.059 12.4159 308.147 13.7705C312.071 10.4038 316.967 8.37972 322.122 7.99352C327.277 7.60733 332.42 8.87926 336.801 11.6237C339.681 9.8217 341.251 5.42542 341.251 1.14915C341.243 1.00619 341.264 0.863049 341.311 0.727919C341.358 0.592789 341.432 0.468313 341.527 0.3616C341.623 0.254887 341.738 0.168028 341.867 0.105984C341.996 0.0439396 342.136 0.00792609 342.279 0C347.235 2.77119 349.734 10.5325 343.424 17.9715C345.822 21.4175 347.255 25.4454 347.56 29.6329C347.816 34.5705 348.072 39.5085 348.33 44.4468C348.358 45.0065 348.165 45.5548 347.792 45.9733C347.42 46.3919 346.898 46.6471 346.339 46.6841C343.86 46.8339 341.38 46.9898 338.9 47.1519C331.617 54.6142 319.034 55.6312 310.735 49.2671C308.259 49.4766 305.783 49.6922 303.306 49.9139C303.033 49.9382 302.758 49.9085 302.497 49.8264C302.235 49.7444 301.993 49.6116 301.782 49.4357C301.572 49.2598 301.399 49.0441 301.272 48.8011C301.145 48.5581 301.067 48.2924 301.043 48.0193C300.649 43.0824 300.254 38.1454 299.859 33.2085ZM332.095 23.4652C331.632 23.3114 331.144 23.2512 330.658 23.2881C329.665 23.3565 328.741 23.816 328.087 24.5657C327.433 25.3154 327.103 26.294 327.17 27.2868C327.623 32.1386 334.81 31.558 334.607 26.7336C334.577 26.2466 334.451 25.7705 334.236 25.3328C334.02 24.8951 333.72 24.5045 333.353 24.1839C332.985 23.8633 332.558 23.619 332.095 23.4652ZM329.065 42.9681C327.852 44.1217 326.284 44.8306 324.617 44.9725C322.962 45.0906 321.318 44.6364 319.958 43.6861C319.492 43.3858 318.927 43.2796 318.384 43.3902C317.841 43.5008 317.362 43.8195 317.051 44.2781C316.739 44.7368 316.619 45.2992 316.716 45.8452C316.813 46.3913 317.12 46.8777 317.571 47.2007C319.725 48.6781 322.321 49.3738 324.925 49.1724C327.53 48.9709 329.987 47.8844 331.89 46.0932C332.291 45.7152 332.529 45.1947 332.551 44.6435C332.573 44.0922 332.379 43.5542 332.009 43.145C331.639 42.7358 331.123 42.4881 330.573 42.455C330.022 42.4219 329.481 42.6062 329.065 42.9681ZM317.192 24.5695C316.728 24.4203 316.239 24.365 315.753 24.4068C314.761 24.486 313.84 24.9556 313.193 25.7128C312.546 26.47 312.226 27.4529 312.302 28.4461C312.805 33.2908 319.986 32.6298 319.733 27.8125C319.699 27.3261 319.568 26.8513 319.349 26.4157C319.13 25.9802 318.826 25.5927 318.456 25.2757C318.086 24.9587 317.656 24.7186 317.192 24.5695Z" fill="white"/>
<path fill-rule="evenodd" clip-rule="evenodd" d="M845.835 118.046C846.115 118.536 846.195 119.115 846.059 119.662L829.824 183.592C829.393 185.191 829.592 186.895 830.38 188.352C831.168 189.809 832.485 190.908 834.059 191.422C835.513 191.653 836.873 192.702 836.423 194.321C835.705 197.072 834.99 199.823 834.277 202.575C834.14 203.081 833.807 203.512 833.353 203.773C832.898 204.033 832.359 204.103 831.853 203.965C821.799 200.999 811.723 198.147 801.626 195.412C800.44 195.063 799.383 194.37 798.59 193.421C797.796 192.472 797.302 191.309 797.169 190.079C767.312 198.435 741.286 168.591 747.62 137.52C753.132 105.365 791.406 91.1664 814.695 113.196C815.027 111.568 815.537 109.08 817.7 109.568C826.67 111.968 835.622 114.456 844.557 117.033C845.097 117.193 845.555 117.556 845.835 118.046ZM806.195 151.831C800.343 172.746 771.82 163.873 776.639 143.447C782.633 123.522 810.489 132.137 806.195 151.831Z" fill="white"/>
<path fill-rule="evenodd" clip-rule="evenodd" d="M406.706 63.8553C412.287 60.6302 418.609 58.909 425.054 58.86C478.762 60.1729 477.354 145.714 425.641 147.875C419.505 147.91 413.465 146.359 408.106 143.372C408.27 152.723 408.434 162.074 408.599 171.424C408.661 172.501 408.296 173.559 407.584 174.368C406.871 175.177 405.868 175.672 404.793 175.746C396.872 175.926 388.953 176.176 381.037 176.494C379.962 176.488 378.932 176.056 378.175 175.292C377.418 174.528 376.995 173.495 377 172.419L373.442 78.3336C373.432 77.9096 373.335 77.4922 373.158 77.1069C372.981 76.7216 372.728 76.3765 372.413 76.0928C372.097 75.8091 371.728 75.5927 371.326 75.4569C370.925 75.3211 370.5 75.2687 370.077 75.303C369.424 75.2569 368.565 75.3978 367.659 75.5465C365.333 75.9282 362.693 76.3614 362.4 73.8163L361.976 64.2498C361.949 63.7173 362.124 63.1943 362.466 62.785C362.807 62.3758 363.29 62.1105 363.819 62.042C377.307 60.4176 390.823 58.9797 404.368 57.7281C406.826 57.7157 406.753 60.0617 406.688 62.1163C406.669 62.7495 406.65 63.355 406.706 63.8553ZM419.765 121.436C399.775 121.013 399.262 90.5084 419.449 89.6461C439.685 90.06 439.701 120.579 419.765 121.436Z" fill="white"/>
<path fill-rule="evenodd" clip-rule="evenodd" d="M646.41 44.8312C655.006 46.0475 663.593 47.339 672.172 48.7058C673.29 48.8843 674.294 49.4937 674.968 50.4034C675.642 51.3131 675.934 52.4508 675.78 53.5729L662.42 147.234C661.973 150.261 664.744 150.98 667.403 151.669C669.776 152.284 672.059 152.876 671.887 155.064L670.434 164.763C670.404 165.029 670.321 165.286 670.19 165.519C670.059 165.753 669.883 165.958 669.672 166.122C669.461 166.286 669.219 166.406 668.96 166.476C668.702 166.545 668.432 166.562 668.168 166.525C655.463 164.386 642.738 162.424 629.993 160.638C627.916 160.215 628.229 158.182 628.492 156.476C628.547 156.122 628.599 155.783 628.628 155.474C600.454 166.202 573.017 139.985 575.896 108.898C577.788 77.0573 612.937 57.6803 638.332 75.9285L641.686 48.4444C641.753 47.894 641.928 47.3623 642.203 46.8809C642.478 46.3994 642.846 45.9779 643.287 45.6412C643.727 45.3044 644.23 45.0593 644.766 44.9201C645.303 44.781 645.862 44.7508 646.41 44.8312ZM636.505 116.123C633.189 136.935 604.618 132.855 606.23 112.187C609.002 91.2722 638.519 95.1264 636.505 116.123Z" fill="white"/>
<path fill-rule="evenodd" clip-rule="evenodd" d="M494.455 142.966C451.936 112.813 483.349 50.6969 532.776 62.7081C553.019 67.4959 568.018 87.7627 565.606 108.609C565.564 109.098 565.343 109.555 564.985 109.891C564.627 110.227 564.158 110.418 563.667 110.428C544.868 110.696 526.114 111.334 507.407 112.342C507.114 112.356 506.829 112.437 506.573 112.579C506.316 112.722 506.097 112.921 505.93 113.162C505.764 113.403 505.656 113.68 505.613 113.97C505.571 114.26 505.597 114.555 505.688 114.834C510.012 128.019 527.52 132.932 538.359 124.534C538.775 124.205 539.3 124.046 539.828 124.089C540.357 124.133 540.849 124.375 541.205 124.767C544.331 128.302 547.436 131.847 550.518 135.403C550.882 135.819 551.07 136.36 551.043 136.912C551.016 137.464 550.776 137.984 550.374 138.363C535.412 152.143 511.397 154.469 494.455 142.966ZM507.462 98.4305C515.389 98.1629 523.322 97.8951 531.265 97.74C531.534 97.7388 531.799 97.68 532.043 97.5676C532.287 97.4551 532.504 97.2917 532.68 97.0883C532.855 96.8848 532.985 96.6461 533.06 96.3882C533.136 96.1303 533.155 95.8592 533.117 95.5932C531.622 84.061 516.883 78.5837 508.638 87.118C506.657 88.7237 501.646 97.68 505.984 98.4803L507.462 98.4305Z" fill="white"/>
<path d="M140.817 197.22C203.638 183.719 284.024 170.227 369.556 165.498L369.273 159.403C283.299 164.153 202.563 177.709 139.536 191.255C100.43 199.659 68.1199 208.065 45.5801 214.371C35.3357 217.237 27.1086 219.67 21.1777 221.473C19.0551 218.528 15.5961 216.61 11.6894 216.61C5.23353 216.61 0 221.846 0 228.305C0 234.764 5.23353 240 11.6894 240C18.1453 240 23.3788 234.764 23.3788 228.305C23.3788 227.931 23.3613 227.562 23.327 227.197C29.1877 225.418 37.2401 223.04 47.2227 220.247C69.6623 213.969 101.85 205.595 140.817 197.22Z" fill="white"/>
<path d="M432.08 163.729C426.571 163.729 421.071 163.772 415.582 163.857L415.474 157.756C420.999 157.671 426.535 157.627 432.08 157.627C540.976 157.627 645.882 174.449 723.532 191.255C762.365 199.661 794.402 208.066 816.737 214.373C827.832 217.506 836.535 220.122 842.488 221.962C844.57 218.742 848.192 216.61 852.311 216.61C858.766 216.61 864 221.846 864 228.305C864 234.764 858.766 240 852.311 240C845.855 240 840.621 234.764 840.621 228.305C840.621 228.194 840.623 228.084 840.626 227.973C840.628 227.907 840.63 227.841 840.633 227.775C834.725 225.949 826.09 223.354 815.08 220.245C792.847 213.967 760.934 205.594 722.242 197.219C644.841 180.466 540.394 163.729 432.08 163.729Z" fill="white"/>
</svg>
