<svg width="512" height="512" viewBox="0 0 512 512" fill="none" xmlns="http://www.w3.org/2000/svg">
<g clip-path="url(#clip0)">
<path fill-rule="evenodd" clip-rule="evenodd" d="M144.922 59.0769H50.6858L3.58044 140.689L209.399 497.2H303.634L350.764 415.59L144.922 59.0769ZM239.161 471.428L263.966 428.475H313.562L288.756 471.428H239.161ZM263.967 402.703H313.564L130.043 84.8489H80.4462L263.967 402.703Z" fill="url(#paint0_linear)"/>
<path fill-rule="evenodd" clip-rule="evenodd" d="M462.346 59.0769H368.111L281.315 209.414L328.445 291.024H422.68L509.476 140.687L462.346 59.0769ZM407.8 265.252H358.203L422.68 153.574H472.277L407.8 265.252ZM422.679 127.802H472.274L447.468 84.8489H397.873L422.679 127.802Z" fill="url(#paint1_linear)"/>
</g>
<defs>
<linearGradient id="paint0_linear" x1="509.476" y1="59.0769" x2="75.8458" y2="559.784" gradientUnits="userSpaceOnUse">
<stop stop-color="#FF957D"/>
<stop offset="1" stop-color="#FF5492"/>
</linearGradient>
<linearGradient id="paint1_linear" x1="509.476" y1="59.0769" x2="75.8458" y2="559.784" gradientUnits="userSpaceOnUse">
<stop stop-color="#FF957D"/>
<stop offset="1" stop-color="#FF5492"/>
</linearGradient>
<clipPath id="clip0">
<rect width="512" height="512" fill="white"/>
</clipPath>
</defs>
</svg>
