<svg width="512" height="512" viewBox="0 0 512 512" fill="none" xmlns="http://www.w3.org/2000/svg">
<g clip-path="url(#clip0)">
<path d="M405.078 54.7008L439.885 115.038H509.478L474.672 54.7008H405.078Z" fill="url(#paint0_linear)"/>
<path d="M380.987 68.6238L303.361 203.222L338.169 263.56L415.795 128.962L380.987 68.6238Z" fill="url(#paint1_linear)"/>
<path d="M362.261 277.482H431.856L509.48 142.885H439.886L362.261 277.482Z" fill="url(#paint2_linear)"/>
<path d="M62.4571 54.7008L268.576 412.08H338.17L132.051 54.7008H62.4571Z" fill="url(#paint3_linear)"/>
<path d="M38.3674 68.6264L3.58044 128.961L209.677 486.341L244.485 426.003L38.3674 68.6264Z" fill="url(#paint4_linear)"/>
<path d="M233.768 500.264H303.361L338.168 439.927H268.575L233.768 500.264Z" fill="url(#paint5_linear)"/>
</g>
<defs>
<linearGradient id="paint0_linear" x1="509.48" y1="54.7008" x2="67.4864" y2="556.548" gradientUnits="userSpaceOnUse">
<stop stop-color="#FF957D"/>
<stop offset="1" stop-color="#FF5492"/>
</linearGradient>
<linearGradient id="paint1_linear" x1="509.48" y1="54.7008" x2="67.4864" y2="556.548" gradientUnits="userSpaceOnUse">
<stop stop-color="#FF957D"/>
<stop offset="1" stop-color="#FF5492"/>
</linearGradient>
<linearGradient id="paint2_linear" x1="509.48" y1="54.7008" x2="67.4864" y2="556.548" gradientUnits="userSpaceOnUse">
<stop stop-color="#FF957D"/>
<stop offset="1" stop-color="#FF5492"/>
</linearGradient>
<linearGradient id="paint3_linear" x1="509.48" y1="54.7008" x2="67.4864" y2="556.548" gradientUnits="userSpaceOnUse">
<stop stop-color="#FF957D"/>
<stop offset="1" stop-color="#FF5492"/>
</linearGradient>
<linearGradient id="paint4_linear" x1="509.48" y1="54.7008" x2="67.4864" y2="556.548" gradientUnits="userSpaceOnUse">
<stop stop-color="#FF957D"/>
<stop offset="1" stop-color="#FF5492"/>
</linearGradient>
<linearGradient id="paint5_linear" x1="509.48" y1="54.7008" x2="67.4864" y2="556.548" gradientUnits="userSpaceOnUse">
<stop stop-color="#FF957D"/>
<stop offset="1" stop-color="#FF5492"/>
</linearGradient>
<clipPath id="clip0">
<rect width="512" height="512" fill="white"/>
</clipPath>
</defs>
</svg>
