<svg aria-hidden="true" style="position: absolute; width: 0; height: 0; overflow: hidden;" version="1.1" xmlns="http://www.w3.org/2000/svg" xmlns:xlink="http://www.w3.org/1999/xlink">
<defs>
<symbol id="icon-post" viewBox="0 0 24 24">
<path d="M13.586 3c0.781-0.781 2.047-0.781 2.828 0l4.586 4.586c0.781 0.781 0.781 2.047 0 2.828l-3.293 3.293c-0.39 0.39-1.024 0.39-1.414 0l-3.5-3.5c-0.39-0.391-0.39-1.024 0-1.414s1.024-0.391 1.414 0l2.793 2.793 2.586-2.586-4.586-4.586-10 10v4.586h4.586l4.207-4.207c0.39-0.391 1.024-0.391 1.414 0s0.39 1.024 0 1.414l-4.207 4.207c-0.375 0.375-0.884 0.586-1.414 0.586h-4.586c-1.105 0-2-0.896-2-2v-4.586c0-0.53 0.211-1.039 0.586-1.414l10-10z"></path>
</symbol>
<symbol id="icon-share" viewBox="0 0 24 24">
<path d="M14 6c0-1.657 1.343-3 3-3s3 1.343 3 3c0 1.657-1.343 3-3 3s-3-1.343-3-3zM17 5c-0.552 0-1 0.448-1 1s0.448 1 1 1c0.552 0 1-0.448 1-1s-0.448-1-1-1z"></path>
<path d="M14 18c0-1.657 1.343-3 3-3s3 1.343 3 3c0 1.657-1.343 3-3 3s-3-1.343-3-3zM17 17c-0.552 0-1 0.448-1 1s0.448 1 1 1c0.552 0 1-0.448 1-1s-0.448-1-1-1z"></path>
<path d="M7 8c-2.209 0-4 1.791-4 4s1.791 4 4 4c1.084 0 2.067-0.431 2.788-1.131l1.925 1.225c0.466 0.297 1.084 0.159 1.381-0.307s0.159-1.084-0.307-1.381l-1.958-1.246c0.111-0.367 0.171-0.757 0.171-1.161s-0.060-0.793-0.171-1.161l1.958-1.246c0.466-0.297 0.603-0.915 0.307-1.381s-0.915-0.603-1.381-0.307l-1.925 1.225c-0.72-0.7-1.704-1.132-2.788-1.132zM5 12c0-1.105 0.895-2 2-2s2 0.895 2 2c0 1.105-0.895 2-2 2s-2-0.895-2-2z"></path>
</symbol>
<symbol id="icon-all" viewBox="0 0 24 24">
<path d="M18 3c1.657 0 3 1.343 3 3v4c0 1.657-1.343 3-3 3h-5v6h5c0.552 0 1-0.448 1-1v-2c0-0.552 0.448-1 1-1s1 0.448 1 1v2c0 1.657-1.343 3-3 3h-12c-1.657 0-3-1.343-3-3v-12c0-1.657 1.343-3 3-3h2c0.552 0 1 0.448 1 1s-0.448 1-1 1h-2c-0.552 0-1 0.448-1 1v5h6v-5c0-1.657 1.343-3 3-3h4zM13 11h5c0.552 0 1-0.448 1-1v-4c0-0.552-0.448-1-1-1h-4c-0.552 0-1 0.448-1 1v5zM11 13h-6v5c0 0.552 0.448 1 1 1h5v-6z"></path>
</symbol>
<symbol id="icon-experiment" viewBox="0 0 24 24">
<path d="M6 4c0-0.552 0.448-1 1-1h2c0.552 0 1 0.448 1 1v4.528c0 1.494-0.478 2.949-1.365 4.152l-4.656 6.319h15.963l-3.776-4.806c-1.553 0.506-3.24 0.453-4.766-0.157l-0.272-0.109c-0.513-0.205-0.762-0.787-0.557-1.3s0.787-0.762 1.3-0.557l0.272 0.109c1.192 0.477 2.522 0.477 3.714 0l0.272-0.109c0.412-0.165 0.884-0.038 1.158 0.311l4.229 5.382c1.031 1.312 0.096 3.236-1.573 3.236h-15.963c-1.64 0-2.583-1.866-1.61-3.186l4.656-6.319c0.633-0.859 0.975-1.899 0.975-2.966v-3.528h-1c-0.552 0-1-0.448-1-1zM14 4c0-0.552 0.448-1 1-1h2c0.552 0 1 0.448 1 1s-0.448 1-1 1h-1v4c0 0.552-0.448 1-1 1s-1-0.448-1-1v-5z"></path>
</symbol>
<symbol id="icon-game" viewBox="0 0 24 24">
<path d="M12 2c0.552 0 1 0.448 1 1v1c0 1.105 0.895 2 2 2h1.821c3.965 0 7.179 3.214 7.179 7.179 0 4.982-4.95 8.449-9.632 6.747l-0.477-0.173c-1.222-0.444-2.561-0.444-3.782 0l-0.477 0.173c-4.682 1.702-9.632-1.765-9.632-6.747 0-3.965 3.214-7.179 7.179-7.179h1.321c0.552 0 1 0.448 1 1s-0.448 1-1 1h-1.321c-2.86 0-5.179 2.319-5.179 5.179 0 3.594 3.571 6.095 6.948 4.867l0.477-0.173c1.663-0.605 3.486-0.605 5.149 0l0.477 0.173c3.378 1.228 6.948-1.273 6.948-4.867 0-2.86-2.319-5.179-5.179-5.179h-1.821c-2.209 0-4-1.791-4-4v-1c0-0.552 0.448-1 1-1zM7 10c0.552 0 1 0.448 1 1v1h1c0.552 0 1 0.448 1 1s-0.448 1-1 1h-1v1c0 0.552-0.448 1-1 1s-1-0.448-1-1v-1h-1c-0.552 0-1-0.448-1-1s0.448-1 1-1h1v-1c0-0.552 0.448-1 1-1zM17 12c0.552 0 1-0.448 1-1s-0.448-1-1-1c-0.552 0-1 0.448-1 1s0.448 1 1 1zM19 14c0.552 0 1-0.448 1-1s-0.448-1-1-1c-0.552 0-1 0.448-1 1s0.448 1 1 1zM18 15c0 0.552-0.448 1-1 1s-1-0.448-1-1c0-0.552 0.448-1 1-1s1 0.448 1 1zM15 14c0.552 0 1-0.448 1-1s-0.448-1-1-1c-0.552 0-1 0.448-1 1s0.448 1 1 1z"></path>
</symbol>
<symbol id="icon-tutorial" viewBox="0 0 24 24">
<path d="M11.172 4.278c0.526-0.239 1.129-0.239 1.655 0l10.586 4.812c0.357 0.162 0.586 0.518 0.586 0.91v5.5c0 0.552-0.448 1-1 1s-1-0.448-1-1v-3.947l-2 0.909v3.719c0 1.2-0.715 2.285-1.818 2.757l-1.061 0.455c-3.27 1.401-6.972 1.401-10.242 0l-1.061-0.455c-1.103-0.473-1.818-1.557-1.818-2.757v-0.681c0-0.552 0.448-1 1-1s1 0.448 1 1v0.681c0 0.4 0.238 0.762 0.606 0.919l1.061 0.455c2.767 1.186 5.899 1.186 8.666 0l1.061-0.455c0.368-0.158 0.606-0.519 0.606-0.919v-4.363c0-0.392 0.229-0.748 0.586-0.91l1.997-0.908-8.583-3.902-8.583 3.902 8.583 3.902 3.086-1.403c0.503-0.228 1.096-0.006 1.324 0.497s0.006 1.096-0.497 1.324l-3.086 1.403c-0.526 0.239-1.129 0.239-1.655 0l-10.586-4.812c-0.357-0.162-0.586-0.518-0.586-0.91s0.229-0.748 0.586-0.91l10.586-4.812z"></path>
</symbol>
</defs>
</svg>
