<svg aria-hidden="true" style="position: absolute; width: 0; height: 0; overflow: hidden;" version="1.1" xmlns="http://www.w3.org/2000/svg" xmlns:xlink="http://www.w3.org/1999/xlink">
<defs>
<symbol id="icon-close" viewBox="0 0 24 24">
<path d="M6.293 6.293c0.391-0.391 1.024-0.391 1.414 0l4.293 4.293 4.293-4.293c0.39-0.391 1.024-0.391 1.414 0s0.39 1.024 0 1.414l-4.293 4.293 4.293 4.293c0.39 0.39 0.39 1.024 0 1.414s-1.024 0.39-1.414 0l-4.293-4.293-4.293 4.293c-0.391 0.39-1.024 0.39-1.414 0s-0.391-1.024 0-1.414l4.293-4.293-4.293-4.293c-0.391-0.391-0.391-1.024 0-1.414z"></path>
</symbol>
<symbol id="icon-facebook" viewBox="0 0 24 24">
<path d="M9.602 3.325c2.099-0.58 4.337-0.38 6.299 0.564s3.516 2.567 4.373 4.569c0.857 2.002 0.959 4.246 0.288 6.317s-2.071 3.829-3.939 4.947c-0.474 0.284-0.628 0.898-0.345 1.372s0.898 0.628 1.372 0.345c2.284-1.367 3.994-3.515 4.815-6.046s0.696-5.275-0.351-7.721-2.946-4.43-5.344-5.584c-2.398-1.154-5.133-1.399-7.698-0.69s-4.786 2.324-6.252 4.545-2.076 4.899-1.718 7.536c0.358 2.637 1.659 5.055 3.664 6.806 1.993 1.741 4.548 2.705 7.193 2.715 0.015 0.001 0.029 0.002 0.043 0.002 0.578 0 1-0.426 1-1.004v-6.996l2.077-0.001c0.244-0 0.453-0.177 0.493-0.418l0.333-1.999c0.051-0.305-0.184-0.582-0.493-0.582h-2.41v-2.001c0 0 0.132-1.131 1.5-1.131h1c0.276 0 0.5-0.224 0.5-0.5v-1.708c0-0.181-0.101-0.341-0.277-0.382-0.234-0.054-0.638-0.113-1.286-0.113-2.512 0-4.436 1.445-4.436 4.203v1.632h-2.010c-0.277 0-0.501 0.225-0.5 0.502l0.008 1.998c0.001 0.275 0.225 0.498 0.5 0.498h2.002v5.775c-1.442-0.329-2.791-1.010-3.921-1.997-1.64-1.432-2.705-3.411-2.998-5.568s0.207-4.348 1.406-6.166 3.016-3.139 5.115-3.719z"></path>
</symbol>
<symbol id="icon-link" viewBox="0 0 24 24">
<path d="M13.293 3.293c2.047-2.047 5.367-2.047 7.414 0s2.047 5.367 0 7.414l-3.5 3.5c-0.39 0.391-1.024 0.391-1.414 0s-0.39-1.024 0-1.414l3.5-3.5c1.266-1.266 1.266-3.319 0-4.586s-3.319-1.266-4.586 0l-3.5 3.5c-0.39 0.391-1.024 0.391-1.414 0s-0.391-1.024 0-1.414l3.5-3.5zM8.207 9.793c0.391 0.39 0.391 1.024 0 1.414l-3.5 3.5c-1.266 1.266-1.266 3.319 0 4.586s3.319 1.266 4.586 0l3.5-3.5c0.39-0.39 1.024-0.39 1.414 0s0.39 1.024 0 1.414l-3.5 3.5c-2.047 2.047-5.367 2.047-7.414 0s-2.047-5.367 0-7.414l3.5-3.5c0.391-0.391 1.024-0.391 1.414 0zM14.707 10.707c0.39-0.39 0.39-1.024 0-1.414s-1.024-0.391-1.414 0l-4 4c-0.391 0.39-0.391 1.024 0 1.414s1.024 0.391 1.414 0l4-4z"></path>
</symbol>
<symbol id="icon-reddit" viewBox="0 0 24 24">
<path d="M12.551 2.184c0.163-0.489 0.671-0.774 1.174-0.658l4.812 1.111c0.365-0.391 0.885-0.636 1.463-0.636 1.105 0 2 0.895 2 2s-0.895 2-2 2c-0.901 0-1.663-0.596-1.913-1.415l-3.926-0.906-0.794 2.382c2.346 0.21 4.482 0.953 6.147 2.081 0.508-0.149 1.048-0.182 1.58-0.091 0.915 0.158 1.729 0.672 2.265 1.431s0.747 1.698 0.59 2.613c-0.122 0.705-0.455 1.351-0.949 1.855l0 0.050c0 2.349-1.361 4.373-3.355 5.769-1.997 1.398-4.703 2.231-7.644 2.231s-5.647-0.833-7.645-2.231c-1.994-1.396-3.355-3.42-3.355-5.769l0-0.050c-0.448-0.457-0.766-1.033-0.912-1.667-0.208-0.905-0.047-1.855 0.446-2.641s1.278-1.345 2.183-1.552c0.591-0.135 1.2-0.114 1.771 0.054 0.952-0.644 2.048-1.158 3.219-1.516 0.528-0.162 1.087 0.136 1.249 0.664s-0.136 1.087-0.664 1.249c-3.325 1.017-5.292 3.219-5.292 5.461 0 1.517 0.877 2.993 2.502 4.131 1.622 1.135 3.916 1.869 6.498 1.869s4.875-0.734 6.498-1.869c1.625-1.138 2.502-2.613 2.502-4.131s-0.877-2.993-2.502-4.131c-1.622-1.135-3.916-1.869-6.498-1.869-0.321 0-0.623-0.155-0.811-0.415s-0.239-0.596-0.138-0.901l1.5-4.5zM8.8 16.561c-0.373-0.181-0.821-0.025-1.002 0.348s-0.025 0.821 0.348 1.002c1.138 0.551 2.486 0.839 3.854 0.839s2.716-0.288 3.854-0.839c0.373-0.18 0.529-0.629 0.348-1.002s-0.629-0.529-1.002-0.348c-0.912 0.442-2.033 0.689-3.2 0.689s-2.288-0.247-3.2-0.689zM10 13.5c0 0.828-0.672 1.5-1.5 1.5s-1.5-0.672-1.5-1.5c0-0.828 0.672-1.5 1.5-1.5s1.5 0.672 1.5 1.5zM15.5 15c0.828 0 1.5-0.672 1.5-1.5s-0.672-1.5-1.5-1.5c-0.828 0-1.5 0.672-1.5 1.5s0.672 1.5 1.5 1.5z"></path>
</symbol>
<symbol id="icon-twitter" viewBox="0 0 24 24">
<path d="M14.045 3.803c0.906-0.346 1.896-0.405 2.837-0.17 0.715 0.179 1.375 0.521 1.93 0.997 0.629-0.24 1.227-0.558 1.778-0.947 0.341-0.24 0.795-0.244 1.139-0.009s0.507 0.658 0.409 1.063c-0.286 1.175-0.854 2.261-1.652 3.163 0.009 0.115 0.013 0.231 0.014 0.347v0.003c0 5.142-2.478 8.929-6.051 10.831-3.548 1.889-8.075 1.864-12.101-0.373-0.405-0.225-0.602-0.698-0.477-1.144s0.54-0.748 1.003-0.729c1.275 0.051 2.539-0.18 3.703-0.667-1.136-0.749-1.974-1.623-2.57-2.564-0.855-1.35-1.177-2.779-1.235-4.057-0.058-1.274 0.144-2.419 0.356-3.239 0.107-0.412 0.217-0.748 0.303-0.985 0.043-0.119 0.080-0.213 0.107-0.279 0.014-0.033 0.025-0.060 0.033-0.079l0.010-0.024 0.003-0.008 0.001-0.003 0.001-0.001c0-0 0-0.001 0.914 0.405l-0.914-0.406c0.146-0.329 0.458-0.554 0.817-0.589s0.708 0.126 0.915 0.421c0.747 1.064 1.746 1.927 2.907 2.511 0.493 0.248 0.692 0.849 0.444 1.343s-0.849 0.692-1.343 0.444c-0.879-0.442-1.684-1.012-2.389-1.687-0.119 0.603-0.202 1.322-0.167 2.086 0.046 1.013 0.297 2.085 0.927 3.078 0.625 0.987 1.661 1.958 3.376 2.72 0.332 0.147 0.558 0.463 0.59 0.825s-0.134 0.712-0.434 0.916c-0.768 0.522-1.596 0.937-2.462 1.242 2.404 0.476 4.778 0.125 6.742-0.921 2.886-1.536 4.99-4.623 4.991-9.063-0.001-0.17-0.017-0.339-0.049-0.506-0.063-0.328 0.042-0.665 0.28-0.9 0.039-0.038 0.077-0.077 0.114-0.116-0.002 0.001-0.005 0.001-0.007 0.002-0.377 0.113-0.785-0.005-1.043-0.301-0.367-0.423-0.856-0.722-1.399-0.858s-1.115-0.102-1.638 0.098c-0.523 0.2-0.972 0.555-1.287 1.018s-0.479 1.012-0.472 1.572l0 0.013h-0v0.833c0 0.552-0.448 1-1 1s-1-0.448-1-1v-0.827c-0.012-0.967 0.273-1.915 0.817-2.715 0.545-0.802 1.323-1.418 2.228-1.764z"></path>
</symbol>
<symbol id="icon-post" viewBox="0 0 24 24">
<path d="M13.586 3c0.781-0.781 2.047-0.781 2.828 0l4.586 4.586c0.781 0.781 0.781 2.047 0 2.828l-3.293 3.293c-0.39 0.39-1.024 0.39-1.414 0l-3.5-3.5c-0.39-0.391-0.39-1.024 0-1.414s1.024-0.391 1.414 0l2.793 2.793 2.586-2.586-4.586-4.586-10 10v4.586h4.586l4.207-4.207c0.39-0.391 1.024-0.391 1.414 0s0.39 1.024 0 1.414l-4.207 4.207c-0.375 0.375-0.884 0.586-1.414 0.586h-4.586c-1.105 0-2-0.896-2-2v-4.586c0-0.53 0.211-1.039 0.586-1.414l10-10z"></path>
</symbol>
<symbol id="icon-share" viewBox="0 0 24 24">
<path d="M14 6c0-1.657 1.343-3 3-3s3 1.343 3 3c0 1.657-1.343 3-3 3s-3-1.343-3-3zM17 5c-0.552 0-1 0.448-1 1s0.448 1 1 1c0.552 0 1-0.448 1-1s-0.448-1-1-1z"></path>
<path d="M14 18c0-1.657 1.343-3 3-3s3 1.343 3 3c0 1.657-1.343 3-3 3s-3-1.343-3-3zM17 17c-0.552 0-1 0.448-1 1s0.448 1 1 1c0.552 0 1-0.448 1-1s-0.448-1-1-1z"></path>
<path d="M7 8c-2.209 0-4 1.791-4 4s1.791 4 4 4c1.084 0 2.067-0.431 2.788-1.131l1.925 1.225c0.466 0.297 1.084 0.159 1.381-0.307s0.159-1.084-0.307-1.381l-1.958-1.246c0.111-0.367 0.171-0.757 0.171-1.161s-0.060-0.793-0.171-1.161l1.958-1.246c0.466-0.297 0.603-0.915 0.307-1.381s-0.915-0.603-1.381-0.307l-1.925 1.225c-0.72-0.7-1.704-1.132-2.788-1.132zM5 12c0-1.105 0.895-2 2-2s2 0.895 2 2c0 1.105-0.895 2-2 2s-2-0.895-2-2z"></path>
</symbol>
<symbol id="icon-all" viewBox="0 0 24 24">
<path d="M18 3c1.657 0 3 1.343 3 3v4c0 1.657-1.343 3-3 3h-5v6h5c0.552 0 1-0.448 1-1v-2c0-0.552 0.448-1 1-1s1 0.448 1 1v2c0 1.657-1.343 3-3 3h-12c-1.657 0-3-1.343-3-3v-12c0-1.657 1.343-3 3-3h2c0.552 0 1 0.448 1 1s-0.448 1-1 1h-2c-0.552 0-1 0.448-1 1v5h6v-5c0-1.657 1.343-3 3-3h4zM13 11h5c0.552 0 1-0.448 1-1v-4c0-0.552-0.448-1-1-1h-4c-0.552 0-1 0.448-1 1v5zM11 13h-6v5c0 0.552 0.448 1 1 1h5v-6z"></path>
</symbol>
<symbol id="icon-experiment" viewBox="0 0 24 24">
<path d="M6 4c0-0.552 0.448-1 1-1h2c0.552 0 1 0.448 1 1v4.528c0 1.494-0.478 2.949-1.365 4.152l-4.656 6.319h15.963l-3.776-4.806c-1.553 0.506-3.24 0.453-4.766-0.157l-0.272-0.109c-0.513-0.205-0.762-0.787-0.557-1.3s0.787-0.762 1.3-0.557l0.272 0.109c1.192 0.477 2.522 0.477 3.714 0l0.272-0.109c0.412-0.165 0.884-0.038 1.158 0.311l4.229 5.382c1.031 1.312 0.096 3.236-1.573 3.236h-15.963c-1.64 0-2.583-1.866-1.61-3.186l4.656-6.319c0.633-0.859 0.975-1.899 0.975-2.966v-3.528h-1c-0.552 0-1-0.448-1-1zM14 4c0-0.552 0.448-1 1-1h2c0.552 0 1 0.448 1 1s-0.448 1-1 1h-1v4c0 0.552-0.448 1-1 1s-1-0.448-1-1v-5z"></path>
</symbol>
<symbol id="icon-game" viewBox="0 0 24 24">
<path d="M12 2c0.552 0 1 0.448 1 1v1c0 1.105 0.895 2 2 2h1.821c3.965 0 7.179 3.214 7.179 7.179 0 4.982-4.95 8.449-9.632 6.747l-0.477-0.173c-1.222-0.444-2.561-0.444-3.782 0l-0.477 0.173c-4.682 1.702-9.632-1.765-9.632-6.747 0-3.965 3.214-7.179 7.179-7.179h1.321c0.552 0 1 0.448 1 1s-0.448 1-1 1h-1.321c-2.86 0-5.179 2.319-5.179 5.179 0 3.594 3.571 6.095 6.948 4.867l0.477-0.173c1.663-0.605 3.486-0.605 5.149 0l0.477 0.173c3.378 1.228 6.948-1.273 6.948-4.867 0-2.86-2.319-5.179-5.179-5.179h-1.821c-2.209 0-4-1.791-4-4v-1c0-0.552 0.448-1 1-1zM7 10c0.552 0 1 0.448 1 1v1h1c0.552 0 1 0.448 1 1s-0.448 1-1 1h-1v1c0 0.552-0.448 1-1 1s-1-0.448-1-1v-1h-1c-0.552 0-1-0.448-1-1s0.448-1 1-1h1v-1c0-0.552 0.448-1 1-1zM17 12c0.552 0 1-0.448 1-1s-0.448-1-1-1c-0.552 0-1 0.448-1 1s0.448 1 1 1zM19 14c0.552 0 1-0.448 1-1s-0.448-1-1-1c-0.552 0-1 0.448-1 1s0.448 1 1 1zM18 15c0 0.552-0.448 1-1 1s-1-0.448-1-1c0-0.552 0.448-1 1-1s1 0.448 1 1zM15 14c0.552 0 1-0.448 1-1s-0.448-1-1-1c-0.552 0-1 0.448-1 1s0.448 1 1 1z"></path>
</symbol>
<symbol id="icon-tutorial" viewBox="0 0 24 24">
<path d="M11.172 4.278c0.526-0.239 1.129-0.239 1.655 0l10.586 4.812c0.357 0.162 0.586 0.518 0.586 0.91v5.5c0 0.552-0.448 1-1 1s-1-0.448-1-1v-3.947l-2 0.909v3.719c0 1.2-0.715 2.285-1.818 2.757l-1.061 0.455c-3.27 1.401-6.972 1.401-10.242 0l-1.061-0.455c-1.103-0.473-1.818-1.557-1.818-2.757v-0.681c0-0.552 0.448-1 1-1s1 0.448 1 1v0.681c0 0.4 0.238 0.762 0.606 0.919l1.061 0.455c2.767 1.186 5.899 1.186 8.666 0l1.061-0.455c0.368-0.158 0.606-0.519 0.606-0.919v-4.363c0-0.392 0.229-0.748 0.586-0.91l1.997-0.908-8.583-3.902-8.583 3.902 8.583 3.902 3.086-1.403c0.503-0.228 1.096-0.006 1.324 0.497s0.006 1.096-0.497 1.324l-3.086 1.403c-0.526 0.239-1.129 0.239-1.655 0l-10.586-4.812c-0.357-0.162-0.586-0.518-0.586-0.91s0.229-0.748 0.586-0.91l10.586-4.812z"></path>
</symbol>
</defs>
</svg>
