<svg width="390" height="103" viewBox="0 0 390 103" fill="none" xmlns="http://www.w3.org/2000/svg">
<path d="M32.1118 71.7808C44.7478 71.7808 51.4798 64.8328 51.4798 54.6808C51.4798 49.6998 49.926 45.4832 46.8903 42.4462C43.6072 39.1617 38.5907 37.2568 31.9318 37.2568H9.46777V87.6568H23.1478V71.7808H32.1118ZM31.7878 49.5328C33.6472 49.5328 35.2349 50.098 36.288 51.1508C37.1516 52.014 37.6558 53.2049 37.6558 54.6808C37.6558 57.9568 35.1718 59.7928 31.7878 59.7928H23.1478V49.5328H31.7878Z" fill="#FBD939"/>
<path d="M69.2767 35.8168H56.4607V87.6568H69.2767V35.8168Z" fill="#FBD939"/>
<path d="M112.163 51.9808H99.8514V55.1848C97.7274 52.7368 94.6314 51.0088 90.1674 51.0088C80.5914 51.0088 73.8954 59.4688 73.8954 69.7648C73.8954 75.5106 75.9518 80.6703 79.4091 84.129C82.1904 86.9114 85.8783 88.5928 90.1314 88.5928C94.6314 88.5928 97.7274 86.9008 99.8514 84.5248V87.6568H112.163V51.9808ZM93.4434 62.9248C95.1884 62.9248 96.7058 63.5753 97.8178 64.6868C99.0458 65.9142 99.7794 67.7038 99.7794 69.8008C99.7794 73.7968 97.1154 76.6768 93.4434 76.6768C91.6984 76.6768 90.181 76.0264 89.069 74.9149C87.841 73.6875 87.1074 71.8978 87.1074 69.8008C87.1074 65.8048 89.7714 62.9248 93.4434 62.9248Z" fill="#FBD939"/>
<path d="M157.754 51.9808H143.714L137.018 66.0208L130.286 51.9808H115.49L130.178 79.5928L118.154 102.057H132.158L157.754 51.9808Z" fill="#FBD939"/>
<path d="M181.676 54.4113C179.645 52.3791 176.771 51.0088 172.819 51.0088C163.171 51.0088 156.583 59.0008 156.583 68.8648C156.583 74.176 158.493 78.9444 161.762 82.2148C164.564 85.0182 168.366 86.7208 172.819 86.7208C177.103 86.7208 180.091 85.1368 182.143 82.8328V84.4528C182.143 89.7088 177.643 91.6528 174.079 91.6528C169.939 91.6528 166.339 90.6088 162.919 88.0168L158.383 98.0968C162.847 101.229 169.003 102.777 175.231 102.777C186.787 102.777 194.635 95.7928 194.635 83.8408V51.9808H182.323V55.1128C182.118 54.8714 181.902 54.6373 181.676 54.4113ZM176.023 62.6368C177.747 62.6368 179.221 63.2555 180.278 64.3124C181.385 65.4188 182.035 67.0053 182.035 68.8648C182.035 72.5008 179.551 75.0928 176.023 75.0928C174.264 75.0928 172.729 74.4484 171.631 73.3516C170.528 72.2485 169.867 70.6879 169.867 68.8648C169.867 65.2288 172.495 62.6368 176.023 62.6368Z" fill="#FBD939"/>
<path d="M222.591 51.0088C218.235 51.0088 215.103 52.4128 213.123 55.5808V51.9808H200.883V87.6568H213.735V68.5408C213.735 64.6168 215.895 63.3568 219.459 63.3568C221.511 63.3568 223.599 63.7888 225.075 64.1848L225.795 51.3688C225.291 51.2608 223.995 51.0088 222.591 51.0088Z" fill="#FBD939"/>
<path d="M261.108 56.5586C257.635 53.0842 252.686 51.0088 246.968 51.0088C235.772 51.0088 227.528 58.9648 227.528 69.8008C227.528 75.1025 229.502 79.7147 232.829 83.0431C236.302 86.5175 241.25 88.5928 246.968 88.5928C258.164 88.5928 266.408 80.6368 266.408 69.8008C266.408 64.4992 264.435 59.8869 261.108 56.5586ZM246.968 62.9248C248.713 62.9248 250.231 63.5753 251.343 64.6868C252.571 65.9142 253.304 67.7038 253.304 69.8008C253.304 73.7968 250.64 76.6768 246.968 76.6768C245.223 76.6768 243.706 76.0264 242.594 74.9149C241.366 73.6875 240.632 71.8978 240.632 69.8008C240.632 65.8048 243.296 62.9248 246.968 62.9248Z" fill="#FBD939"/>
<path d="M305.866 51.9808H293.05V71.2048C293.05 74.7688 291.178 76.6768 288.37 76.6768C287.058 76.6768 285.95 76.2602 285.143 75.4526C284.222 74.532 283.69 73.1033 283.69 71.2048V51.9808H270.874V72.2848C270.874 77.3858 272.457 81.2377 275.131 83.9135C278.289 87.0731 282.971 88.5928 288.37 88.5928C298.342 88.5928 305.866 83.4088 305.866 72.3208V51.9808Z" fill="#FBD939"/>
<path d="M342.851 54.5262C340.595 52.2696 337.455 51.0088 333.828 51.0088C329.364 51.0088 326.196 52.5568 324.18 55.6528V51.9808H311.976V87.6568H324.792V68.5408C324.792 64.6888 326.7 62.9968 329.256 62.9968C330.529 62.9968 331.572 63.3887 332.333 64.1489C333.25 65.0662 333.756 66.5199 333.756 68.4688V87.6568H346.572V64.4368C346.572 60.2627 345.185 56.8612 342.851 54.5262Z" fill="#FBD939"/>
<path d="M367.339 51.0088C357.763 51.0088 351.067 59.4688 351.067 69.7648C351.067 75.5106 353.124 80.6703 356.581 84.1289C359.362 86.9113 363.05 88.5928 367.303 88.5928C371.803 88.5928 374.899 86.9008 377.023 84.5248V87.6568H389.299V35.8168H376.483V54.5728C374.359 52.4488 371.443 51.0088 367.339 51.0088ZM370.615 62.9248C372.36 62.9248 373.878 63.5753 374.99 64.6868C376.218 65.9142 376.951 67.7038 376.951 69.8008C376.951 73.7968 374.287 76.6768 370.615 76.6768C368.87 76.6768 367.353 76.0264 366.241 74.9149C365.013 73.6875 364.279 71.8978 364.279 69.8008C364.279 65.8048 366.943 62.9248 370.615 62.9248Z" fill="#FBD939"/>
<path d="M3.81091 31.6H26.2749L31.9318 37.2568H9.46777L3.81091 31.6Z" fill="#FBD939"/>
<path d="M3.81091 82V31.6L9.46777 37.2568V87.6568L3.81091 82Z" fill="#FBD939"/>
<path d="M26.131 43.876H17.491L23.1478 49.5328H31.7878L26.131 43.876Z" fill="#FBD939"/>
<path d="M17.491 43.876V54.136L23.1478 59.7928V49.5328L17.491 43.876Z" fill="#FBD939"/>
<path d="M26.2749 31.6C32.9338 31.6 37.9503 33.5048 41.2334 36.7894L46.8858 42.4417C43.6026 39.1599 38.5876 37.2568 31.9318 37.2568L26.2749 31.6Z" fill="#FBD939"/>
<path d="M30.6311 45.4939C29.578 44.4412 27.9903 43.876 26.1309 43.876L31.7877 49.5328C33.6471 49.5328 35.2348 50.098 36.288 51.1508L30.6311 45.4939Z" fill="#FBD939"/>
<path d="M17.491 54.136H26.131L31.7878 59.7928H23.1478L17.491 54.136Z" fill="#FBD939"/>
<path d="M31.9988 49.024C31.9988 47.5488 31.4952 46.3583 30.6324 45.4952L36.288 51.1508C37.1515 52.0139 37.6557 53.2049 37.6557 54.6808L31.9988 49.024Z" fill="#FBD939"/>
<path d="M26.1309 54.136C29.5149 54.136 31.9989 52.3 31.9989 49.024L37.6557 54.6808C37.6557 57.9568 35.1717 59.7928 31.7877 59.7928L26.1309 54.136Z" fill="#FBD939"/>
<path d="M41.2334 36.7894C44.2691 39.8264 45.8229 44.043 45.8229 49.024L51.4797 54.6808C51.4797 49.6998 49.926 45.4832 46.8903 42.4462L41.2334 36.7894Z" fill="#FBD939"/>
<path d="M50.8038 30.16H63.6198L69.2767 35.8168H56.4607L50.8038 30.16Z" fill="#FBD939"/>
<path d="M26.455 66.124H17.491L23.1478 71.7808H32.1118L26.455 66.124Z" fill="#FBD939"/>
<path d="M17.491 66.124V82L23.1478 87.6568V71.7808L17.491 66.124Z" fill="#FBD939"/>
<path d="M17.4909 82H3.81091L9.46777 87.6569H23.1478L17.4909 82Z" fill="#FBD939"/>
<path d="M45.8228 49.024C45.8228 59.176 39.0908 66.124 26.4548 66.124L32.1117 71.7808C44.7477 71.7808 51.4797 64.8328 51.4797 54.6808L45.8228 49.024Z" fill="#FBD939"/>
<path d="M50.8038 82V30.16L56.4607 35.8168V87.6568L50.8038 82Z" fill="#FBD939"/>
<path d="M63.6199 30.16V82L69.2767 87.6568V35.8168L63.6199 30.16Z" fill="#FBD939"/>
<path d="M68.2385 64.108C68.2385 53.812 74.9345 45.352 84.5105 45.352L90.1674 51.0088C80.5914 51.0088 73.8954 59.4688 73.8954 69.7648L68.2385 64.108Z" fill="#FBD939"/>
<path d="M84.5105 45.352C88.9745 45.352 92.0705 47.08 94.1945 49.528L98.5905 53.9239C99.0447 54.3162 99.4642 54.7386 99.8514 55.1848L98.5905 53.9239C96.5531 52.1643 93.8176 51.0088 90.1674 51.0088L84.5105 45.352Z" fill="#FBD939"/>
<path d="M63.6198 82H50.8038L56.4607 87.6569H69.2767L63.6198 82Z" fill="#FBD939"/>
<path d="M94.1946 49.528V46.324L99.8514 51.9808V55.1848L94.1946 49.528Z" fill="#FBD939"/>
<path d="M73.7522 78.4721C70.295 75.0134 68.2385 69.8537 68.2385 64.108L73.8954 69.7648C73.8954 75.5105 75.9518 80.6703 79.4091 84.129L73.7522 78.4721Z" fill="#FBD939"/>
<path d="M87.7866 57.2679C84.1146 57.2679 81.4506 60.1479 81.4506 64.1439L87.1074 69.8008C87.1074 65.8048 89.7714 62.9248 93.4434 62.9248L87.7866 57.2679Z" fill="#FBD939"/>
<path d="M94.1946 46.324H106.507L112.163 51.9808H99.8514L94.1946 46.324Z" fill="#FBD939"/>
<path d="M92.1611 59.0299C91.049 57.9184 89.5317 57.2679 87.7866 57.2679L93.4435 62.9248C95.1885 62.9248 96.7059 63.5752 97.8179 64.6867L92.1611 59.0299Z" fill="#FBD939"/>
<path d="M81.4506 64.144C81.4506 66.241 82.1842 68.0306 83.4121 69.258L89.0671 74.913C87.8403 73.6857 87.1074 71.8968 87.1074 69.8008L81.4506 64.144Z" fill="#FBD939"/>
<path d="M94.1225 64.144C94.1225 62.048 93.3896 60.2591 92.1628 59.0318L97.8177 64.6868C99.0457 65.9142 99.7793 67.7038 99.7793 69.8008L94.1225 64.144Z" fill="#FBD939"/>
<path d="M83.4121 69.2581C84.5241 70.3696 86.0415 71.02 87.7865 71.02L93.4434 76.6769C91.6984 76.6769 90.181 76.0264 89.069 74.9149L83.4121 69.2581Z" fill="#FBD939"/>
<path d="M87.7866 71.02C91.4586 71.02 94.1226 68.14 94.1226 64.144L99.7795 69.8008C99.7795 73.7968 97.1155 76.6768 93.4435 76.6768L87.7866 71.02Z" fill="#FBD939"/>
<path d="M84.4745 82.936C80.2237 82.936 76.5376 81.2564 73.7568 78.4767L79.4091 84.129C82.1903 86.9114 85.8782 88.5928 90.1313 88.5928L84.4745 82.936Z" fill="#FBD939"/>
<path d="M109.833 46.324H124.629L130.286 51.9808H115.49L109.833 46.324Z" fill="#FBD939"/>
<path d="M94.1946 78.868C92.0706 81.244 88.9746 82.936 84.4746 82.936L90.1315 88.5928C94.6315 88.5928 97.7275 86.9008 99.8515 84.5248L94.1946 78.868Z" fill="#FBD939"/>
<path d="M106.507 46.324V82L112.163 87.6568V51.9808L106.507 46.324Z" fill="#FBD939"/>
<path d="M94.1946 82V78.868L99.8514 84.5248V87.6568L94.1946 82Z" fill="#FBD939"/>
<path d="M124.521 73.936L109.833 46.324L115.49 51.9808L130.178 79.5928L124.521 73.936Z" fill="#FBD939"/>
<path d="M124.629 46.324L131.361 60.364L137.018 66.0208L130.286 51.9808L124.629 46.324Z" fill="#FBD939"/>
<path d="M106.507 82H94.1946L99.8514 87.6569H112.163L106.507 82Z" fill="#FBD939"/>
<path d="M131.361 60.364L138.057 46.324L143.714 51.9808L137.018 66.0208L131.361 60.364Z" fill="#FBD939"/>
<path d="M138.057 46.324H152.097L157.754 51.9808H143.714L138.057 46.324Z" fill="#FBD939"/>
<path d="M112.497 96.4L124.521 73.936L130.178 79.5928L118.154 102.057L112.497 96.4Z" fill="#FBD939"/>
<path d="M152.097 46.324L126.501 96.4L132.158 102.057L157.754 51.9808L152.097 46.324Z" fill="#FBD939"/>
<path d="M150.926 63.208C150.926 53.344 157.514 45.352 167.162 45.352L172.819 51.0088C163.171 51.0088 156.583 59.0008 156.583 68.8648L150.926 63.208Z" fill="#FBD939"/>
<path d="M126.501 96.4H112.497L118.154 102.057H132.158L126.501 96.4Z" fill="#FBD939"/>
<path d="M167.162 45.352C171.114 45.352 173.988 46.7223 176.019 48.7544L181.672 54.4071C179.641 52.3772 176.769 51.0088 172.819 51.0088L167.162 45.352Z" fill="#FBD939"/>
<path d="M156.105 76.5579C152.836 73.2875 150.926 68.5191 150.926 63.2079L156.583 68.8648C156.583 74.1759 158.493 78.9444 161.762 82.2147L156.105 76.5579Z" fill="#FBD939"/>
<path d="M176.666 49.456V46.324L182.323 51.9808V55.1128L176.666 49.456Z" fill="#FBD939"/>
<path d="M176.019 48.7544C176.245 48.9804 176.461 49.2146 176.666 49.456L182.323 55.1128C182.117 54.8714 181.902 54.6372 181.676 54.4112L176.019 48.7544Z" fill="#FBD939"/>
<path d="M170.366 56.98C166.838 56.98 164.21 59.572 164.21 63.208L169.867 68.8648C169.867 65.2288 172.495 62.6368 176.023 62.6368L170.366 56.98Z" fill="#FBD939"/>
<path d="M176.666 46.324H188.978L194.635 51.9808H182.323L176.666 46.324Z" fill="#FBD939"/>
<path d="M174.622 58.6556C173.564 57.5987 172.09 56.98 170.366 56.98L176.023 62.6368C177.747 62.6368 179.221 63.2555 180.278 64.3124L174.622 58.6556Z" fill="#FBD939"/>
<path d="M164.21 63.2079C164.21 65.031 164.871 66.5916 165.974 67.6947L171.629 73.3497C170.527 72.2468 169.867 70.6869 169.867 68.8648L164.21 63.2079Z" fill="#FBD939"/>
<path d="M176.378 63.2079C176.378 61.3493 175.729 59.7635 174.623 58.6572L180.278 64.3124C181.385 65.4187 182.035 67.0052 182.035 68.8648L176.378 63.2079Z" fill="#FBD939"/>
<path d="M165.974 67.6947C167.072 68.7916 168.607 69.436 170.366 69.436L176.023 75.0928C174.264 75.0928 172.728 74.4485 171.631 73.3516L165.974 67.6947Z" fill="#FBD939"/>
<path d="M170.366 69.4359C173.894 69.4359 176.378 66.8439 176.378 63.2079L182.035 68.8648C182.035 72.5008 179.551 75.0928 176.023 75.0928L170.366 69.4359Z" fill="#FBD939"/>
<path d="M167.162 81.064C162.711 81.064 158.911 79.363 156.109 76.562L161.762 82.2148C164.565 85.0182 168.366 86.7208 172.819 86.7208L167.162 81.064Z" fill="#FBD939"/>
<path d="M152.726 92.44L157.262 82.36L162.919 88.0168L158.383 98.0968L152.726 92.44Z" fill="#FBD939"/>
<path d="M157.262 82.36C160.682 84.952 164.282 85.996 168.422 85.996L174.079 91.6528C169.939 91.6528 166.339 90.6088 162.919 88.0168L157.262 82.36Z" fill="#FBD939"/>
<path d="M195.226 46.324H207.466L213.123 51.9808H200.883L195.226 46.324Z" fill="#FBD939"/>
<path d="M176.486 77.176C174.434 79.48 171.446 81.064 167.162 81.064L172.819 86.7208C177.103 86.7208 180.091 85.1368 182.143 82.8328L176.486 77.176Z" fill="#FBD939"/>
<path d="M188.978 46.324V78.184L194.635 83.8408V51.9808L188.978 46.324Z" fill="#FBD939"/>
<path d="M176.486 78.796V77.176L182.143 82.8328V84.4528L176.486 78.796Z" fill="#FBD939"/>
<path d="M168.422 85.996C171.986 85.996 176.486 84.052 176.486 78.796L182.143 84.4528C182.143 89.7088 177.643 91.6528 174.079 91.6528L168.422 85.996Z" fill="#FBD939"/>
<path d="M207.466 46.324V49.924L213.123 55.5808V51.9808L207.466 46.324Z" fill="#FBD939"/>
<path d="M169.574 97.12C163.346 97.12 157.19 95.572 152.726 92.44L158.383 98.0969C162.847 101.229 169.003 102.777 175.231 102.777L169.574 97.12Z" fill="#FBD939"/>
<path d="M195.226 82V46.324L200.883 51.9808V87.6568L195.226 82Z" fill="#FBD939"/>
<path d="M207.466 49.924C209.446 46.756 212.578 45.352 216.934 45.352L222.591 51.0088C218.235 51.0088 215.103 52.4128 213.123 55.5808L207.466 49.924Z" fill="#FBD939"/>
<path d="M216.934 45.352C218.338 45.352 219.634 45.604 220.138 45.712L225.795 51.3688C225.291 51.2608 223.995 51.0088 222.591 51.0088L216.934 45.352Z" fill="#FBD939"/>
<path d="M188.978 78.184C188.978 90.136 181.13 97.12 169.574 97.12L175.231 102.777C186.787 102.777 194.635 95.7928 194.635 83.8408L188.978 78.184Z" fill="#FBD939"/>
<path d="M213.802 57.7C210.238 57.7 208.078 58.96 208.078 62.884L213.735 68.5408C213.735 64.6168 215.895 63.3568 219.459 63.3568L213.802 57.7Z" fill="#FBD939"/>
<path d="M220.138 45.712L219.418 58.528L225.075 64.1848L225.795 51.3688L220.138 45.712Z" fill="#FBD939"/>
<path d="M219.418 58.528C217.942 58.132 215.854 57.7 213.802 57.7L219.459 63.3568C221.511 63.3568 223.599 63.7888 225.075 64.1848L219.418 58.528Z" fill="#FBD939"/>
<path d="M208.078 62.884V82L213.735 87.6568V68.5408L208.078 62.884Z" fill="#FBD939"/>
<path d="M208.078 82H195.226L200.883 87.6569H213.735L208.078 82Z" fill="#FBD939"/>
<path d="M221.871 64.144C221.871 53.308 230.115 45.352 241.311 45.352L246.968 51.0088C235.772 51.0088 227.528 58.9648 227.528 69.8008L221.871 64.144Z" fill="#FBD939"/>
<path d="M227.172 77.3862C223.845 74.0579 221.871 69.4456 221.871 64.144L227.528 69.8008C227.528 75.1025 229.502 79.7147 232.829 83.0431L227.172 77.3862Z" fill="#FBD939"/>
<path d="M241.311 45.352C247.03 45.352 251.978 47.4273 255.451 50.9017L261.103 56.5538C257.63 53.0823 252.684 51.0088 246.968 51.0088L241.311 45.352Z" fill="#FBD939"/>
<path d="M241.311 57.2679C237.639 57.2679 234.975 60.1479 234.975 64.1439L240.632 69.8008C240.632 65.8048 243.296 62.9248 246.968 62.9248L241.311 57.2679Z" fill="#FBD939"/>
<path d="M245.686 59.0299C244.574 57.9184 243.056 57.2679 241.311 57.2679L246.968 62.9248C248.713 62.9248 250.231 63.5752 251.343 64.6867L245.686 59.0299Z" fill="#FBD939"/>
<path d="M234.975 64.144C234.975 66.241 235.709 68.0306 236.937 69.258L242.592 74.913C241.365 73.6857 240.632 71.8968 240.632 69.8008L234.975 64.144Z" fill="#FBD939"/>
<path d="M247.647 64.144C247.647 62.048 246.914 60.2591 245.688 59.0318L251.343 64.6868C252.571 65.9142 253.304 67.7038 253.304 69.8008L247.647 64.144Z" fill="#FBD939"/>
<path d="M236.937 69.2581C238.049 70.3696 239.566 71.02 241.311 71.02L246.968 76.6769C245.223 76.6769 243.706 76.0264 242.594 74.9149L236.937 69.2581Z" fill="#FBD939"/>
<path d="M241.311 71.02C244.983 71.02 247.647 68.14 247.647 64.144L253.304 69.8008C253.304 73.7968 250.64 76.6768 246.968 76.6768L241.311 71.02Z" fill="#FBD939"/>
<path d="M241.311 82.936C235.596 82.936 230.65 80.8626 227.177 77.391L232.829 83.0431C236.302 86.5175 241.25 88.5929 246.968 88.5929L241.311 82.936Z" fill="#FBD939"/>
<path d="M255.451 50.9017C258.778 54.2301 260.751 58.8423 260.751 64.144L266.408 69.8008C266.408 64.4992 264.435 59.8869 261.108 56.5586L255.451 50.9017Z" fill="#FBD939"/>
<path d="M265.218 46.324H278.034L283.69 51.9808H270.874L265.218 46.324Z" fill="#FBD939"/>
<path d="M265.218 66.628V46.324L270.874 51.9808V72.2848L265.218 66.628Z" fill="#FBD939"/>
<path d="M260.751 64.144C260.751 74.98 252.507 82.936 241.311 82.936L246.968 88.5928C258.164 88.5928 266.408 80.6368 266.408 69.8008L260.751 64.144Z" fill="#FBD939"/>
<path d="M278.034 46.324V65.548L283.69 71.2048V51.9808L278.034 46.324Z" fill="#FBD939"/>
<path d="M269.474 78.2567C266.8 75.5809 265.218 71.7289 265.218 66.628L270.874 72.2848C270.874 77.3858 272.456 81.2377 275.131 83.9135L269.474 78.2567Z" fill="#FBD939"/>
<path d="M287.394 46.324H300.21L305.866 51.9808H293.05L287.394 46.324Z" fill="#FBD939"/>
<path d="M287.394 65.548V46.324L293.05 51.9808V71.2048L287.394 65.548Z" fill="#FBD939"/>
<path d="M278.034 65.548C278.034 67.4465 278.565 68.8751 279.486 69.7957L285.142 75.4516C284.221 74.531 283.69 73.1027 283.69 71.2048L278.034 65.548Z" fill="#FBD939"/>
<path d="M279.486 69.7957C280.294 70.6033 281.401 71.02 282.714 71.02L288.37 76.6768C287.058 76.6768 285.95 76.2602 285.143 75.4526L279.486 69.7957Z" fill="#FBD939"/>
<path d="M282.714 71.02C285.522 71.02 287.394 69.112 287.394 65.548L293.051 71.2048C293.051 74.7688 291.178 76.6768 288.37 76.6768L282.714 71.02Z" fill="#FBD939"/>
<path d="M282.714 82.936C277.316 82.936 272.636 81.4175 269.478 78.2606L275.131 83.9135C278.289 87.0731 282.971 88.5928 288.37 88.5928L282.714 82.936Z" fill="#FBD939"/>
<path d="M300.21 46.324V66.664L305.866 72.3208V51.9808L300.21 46.324Z" fill="#FBD939"/>
<path d="M306.319 46.324H318.523L324.18 51.9808H311.976L306.319 46.324Z" fill="#FBD939"/>
<path d="M300.21 66.664C300.21 77.752 292.686 82.936 282.714 82.936L288.37 88.5929C298.342 88.5929 305.866 83.4089 305.866 72.3209L300.21 66.664Z" fill="#FBD939"/>
<path d="M318.523 46.324V49.996L324.18 55.6528V51.9808L318.523 46.324Z" fill="#FBD939"/>
<path d="M306.319 82V46.324L311.976 51.9808V87.6568L306.319 82Z" fill="#FBD939"/>
<path d="M318.523 49.996C320.539 46.9 323.707 45.352 328.171 45.352L333.828 51.0088C329.364 51.0088 326.196 52.5568 324.18 55.6528L318.523 49.996Z" fill="#FBD939"/>
<path d="M328.172 45.352C331.798 45.352 334.938 46.6127 337.194 48.8693L342.848 54.523C340.592 52.2684 337.454 51.0088 333.828 51.0088L328.172 45.352Z" fill="#FBD939"/>
<path d="M323.6 57.34C321.044 57.34 319.135 59.032 319.135 62.884L324.792 68.5408C324.792 64.6888 326.7 62.9968 329.256 62.9968L323.6 57.34Z" fill="#FBD939"/>
<path d="M326.676 58.492C325.915 57.7318 324.872 57.34 323.599 57.34L329.256 62.9968C330.529 62.9968 331.572 63.3887 332.333 64.1489L326.676 58.492Z" fill="#FBD939"/>
<path d="M328.099 62.812C328.099 60.8639 327.594 59.4105 326.677 58.4931L332.333 64.1489C333.25 65.0663 333.756 66.52 333.756 68.4689L328.099 62.812Z" fill="#FBD939"/>
<path d="M319.135 62.884V82L324.792 87.6568V68.5408L319.135 62.884Z" fill="#FBD939"/>
<path d="M337.194 48.8693C339.528 51.2044 340.915 54.6058 340.915 58.78L346.572 64.4369C346.572 60.2627 345.185 56.8613 342.851 54.5262L337.194 48.8693Z" fill="#FBD939"/>
<path d="M319.135 82H306.319L311.976 87.6569H324.792L319.135 82Z" fill="#FBD939"/>
<path d="M328.099 82V62.812L333.756 68.4688V87.6568L328.099 82Z" fill="#FBD939"/>
<path d="M370.826 30.16H383.642L389.299 35.8168H376.483L370.826 30.16Z" fill="#FBD939"/>
<path d="M345.41 64.108C345.41 53.812 352.106 45.352 361.682 45.352L367.339 51.0088C357.763 51.0088 351.067 59.4688 351.067 69.7648L345.41 64.108Z" fill="#FBD939"/>
<path d="M370.826 48.916V30.16L376.483 35.8168V54.5728L370.826 48.916Z" fill="#FBD939"/>
<path d="M340.916 58.78V82L346.572 87.6568V64.4368L340.916 58.78Z" fill="#FBD939"/>
<path d="M361.682 45.352C365.786 45.352 368.702 46.792 370.826 48.916L376.483 54.5728C374.359 52.4488 371.443 51.0088 367.339 51.0088L361.682 45.352Z" fill="#FBD939"/>
<path d="M340.915 82H328.099L333.756 87.6569H346.572L340.915 82Z" fill="#FBD939"/>
<path d="M350.924 78.4721C347.467 75.0134 345.41 69.8537 345.41 64.108L351.067 69.7648C351.067 75.5105 353.124 80.6703 356.581 84.1289L350.924 78.4721Z" fill="#FBD939"/>
<path d="M364.958 57.2679C361.286 57.2679 358.622 60.1479 358.622 64.1439L364.279 69.8008C364.279 65.8048 366.943 62.9248 370.615 62.9248L364.958 57.2679Z" fill="#FBD939"/>
<path d="M369.333 59.0299C368.221 57.9184 366.703 57.2679 364.958 57.2679L370.615 62.9248C372.36 62.9248 373.878 63.5752 374.99 64.6867L369.333 59.0299Z" fill="#FBD939"/>
<path d="M358.622 64.144C358.622 66.241 359.356 68.0306 360.584 69.258L366.239 74.913C365.012 73.6857 364.279 71.8968 364.279 69.8008L358.622 64.144Z" fill="#FBD939"/>
<path d="M371.294 64.144C371.294 62.048 370.561 60.2591 369.335 59.0318L374.99 64.6868C376.218 65.9142 376.951 67.7038 376.951 69.8008L371.294 64.144Z" fill="#FBD939"/>
<path d="M360.584 69.2581C361.696 70.3696 363.213 71.02 364.958 71.02L370.615 76.6769C368.87 76.6769 367.353 76.0264 366.241 74.9149L360.584 69.2581Z" fill="#FBD939"/>
<path d="M364.958 71.02C368.63 71.02 371.294 68.14 371.294 64.144L376.951 69.8008C376.951 73.7968 374.287 76.6768 370.615 76.6768L364.958 71.02Z" fill="#FBD939"/>
<path d="M361.646 82.936C357.396 82.936 353.709 81.2564 350.929 78.4767L356.581 84.129C359.362 86.9114 363.05 88.5928 367.303 88.5928L361.646 82.936Z" fill="#FBD939"/>
<path d="M383.642 30.16V82L389.299 87.6568V35.8168L383.642 30.16Z" fill="#FBD939"/>
<path d="M371.366 78.868C369.242 81.244 366.146 82.936 361.646 82.936L367.303 88.5928C371.803 88.5928 374.899 86.9008 377.023 84.5248L371.366 78.868Z" fill="#FBD939"/>
<path d="M371.366 82V78.868L377.023 84.5248V87.6568L371.366 82Z" fill="#FBD939"/>
<path d="M383.642 82H371.366L377.023 87.6569H389.299L383.642 82Z" fill="#FBD939"/>
<path d="M26.4549 66.124C39.0909 66.124 45.8229 59.176 45.8229 49.024C45.8229 38.656 39.0909 31.6 26.2749 31.6H3.81094V82H17.4909V66.124H26.4549ZM26.1309 43.876C29.5149 43.876 31.9989 45.748 31.9989 49.024C31.9989 52.3 29.5149 54.136 26.1309 54.136H17.4909V43.876H26.1309ZM63.6199 30.16H50.8039V82H63.6199V30.16ZM106.507 46.324H94.1946V49.528C92.0706 47.08 88.9746 45.352 84.5106 45.352C74.9346 45.352 68.2386 53.812 68.2386 64.108C68.2386 74.476 74.9346 82.936 84.4746 82.936C88.9746 82.936 92.0706 81.244 94.1946 78.868V82H106.507V46.324ZM87.7866 57.268C91.4586 57.268 94.1226 60.148 94.1226 64.144C94.1226 68.14 91.4586 71.02 87.7866 71.02C84.1146 71.02 81.4506 68.14 81.4506 64.144C81.4506 60.148 84.1146 57.268 87.7866 57.268ZM152.097 46.324H138.057L131.361 60.364L124.629 46.324H109.833L124.521 73.936L112.497 96.4H126.501L152.097 46.324ZM167.162 45.352C157.514 45.352 150.926 53.344 150.926 63.208C150.926 73.072 157.514 81.064 167.162 81.064C171.446 81.064 174.434 79.48 176.486 77.176V78.796C176.486 84.052 171.986 85.996 168.422 85.996C164.282 85.996 160.682 84.952 157.262 82.36L152.726 92.44C157.19 95.572 163.346 97.12 169.574 97.12C181.13 97.12 188.978 90.136 188.978 78.184V46.324H176.666V49.456C174.614 47.044 171.554 45.352 167.162 45.352ZM170.366 56.98C173.894 56.98 176.378 59.572 176.378 63.208C176.378 66.844 173.894 69.436 170.366 69.436C166.838 69.436 164.21 66.844 164.21 63.208C164.21 59.572 166.838 56.98 170.366 56.98ZM216.934 45.352C212.578 45.352 209.446 46.756 207.466 49.924V46.324H195.226V82H208.078V62.884C208.078 58.96 210.238 57.7 213.802 57.7C215.854 57.7 217.942 58.132 219.418 58.528L220.138 45.712C219.634 45.604 218.338 45.352 216.934 45.352ZM241.311 45.352C230.115 45.352 221.871 53.308 221.871 64.144C221.871 74.98 230.115 82.936 241.311 82.936C252.507 82.936 260.751 74.98 260.751 64.144C260.751 53.308 252.507 45.352 241.311 45.352ZM241.311 57.268C244.983 57.268 247.647 60.148 247.647 64.144C247.647 68.14 244.983 71.02 241.311 71.02C237.639 71.02 234.975 68.14 234.975 64.144C234.975 60.148 237.639 57.268 241.311 57.268ZM300.21 46.324H287.394V65.548C287.394 69.112 285.522 71.02 282.714 71.02C279.906 71.02 278.034 69.112 278.034 65.548V46.324H265.218V66.628C265.218 77.752 272.742 82.936 282.714 82.936C292.686 82.936 300.21 77.752 300.21 66.664V46.324ZM328.172 45.352C323.708 45.352 320.54 46.9 318.524 49.996V46.324H306.32V82H319.136V62.884C319.136 59.032 321.044 57.34 323.6 57.34C326.408 57.34 328.1 59.248 328.1 62.812V82H340.916V58.78C340.916 50.572 335.552 45.352 328.172 45.352ZM361.682 45.352C352.106 45.352 345.41 53.812 345.41 64.108C345.41 74.476 352.106 82.936 361.646 82.936C366.146 82.936 369.242 81.244 371.366 78.868V82H383.642V30.16H370.826V48.916C368.702 46.792 365.786 45.352 361.682 45.352ZM364.958 57.268C368.63 57.268 371.294 60.148 371.294 64.144C371.294 68.14 368.63 71.02 364.958 71.02C361.286 71.02 358.622 68.14 358.622 64.144C358.622 60.148 361.286 57.268 364.958 57.268Z" fill="#161E4B"/>
<path d="M82.84 37.4C80.4933 37.4 78.4 36.88 76.56 35.84C74.7467 34.8 73.3333 33.2667 72.32 31.24C71.3067 29.2133 70.8 26.7467 70.8 23.84C70.8 21.0133 71.3333 18.5867 72.4 16.56C73.4667 14.5067 74.9867 12.9333 76.96 11.84C78.96 10.7467 81.3067 10.2 84 10.2C87.0133 10.2 89.4267 10.7467 91.24 11.84C93.08 12.9067 94.5067 14.6133 95.52 16.96L89.16 19.48C88.8133 18.12 88.2 17.1333 87.32 16.52C86.44 15.9067 85.3467 15.6 84.04 15.6C82.0667 15.6 80.5333 16.3067 79.44 17.72C78.3733 19.1067 77.84 21.1333 77.84 23.8C77.84 26.6267 78.3867 28.7333 79.48 30.12C80.5733 31.48 82.2133 32.16 84.4 32.16C85.92 32.16 87.1867 31.8 88.2 31.08C89.2133 30.36 89.72 29.2533 89.72 27.76V27.36H83.68V22.76H95.56V37H90.88L90.6 33.76C89.8533 34.9333 88.8267 35.84 87.52 36.48C86.24 37.0933 84.68 37.4 82.84 37.4ZM110.706 24.32C110.706 23.3867 110.44 22.6533 109.906 22.12C109.4 21.56 108.706 21.28 107.826 21.28C106.946 21.28 106.186 21.5067 105.546 21.96C104.933 22.3867 104.506 23.16 104.266 24.28L98.5063 22.92C98.8796 21 99.8663 19.4667 101.466 18.32C103.066 17.1733 105.32 16.6 108.226 16.6C111.16 16.6 113.426 17.2533 115.026 18.56C116.653 19.84 117.466 21.72 117.466 24.2V31.52C117.466 32.56 117.933 33.08 118.866 33.08C119.346 33.08 119.733 33.0267 120.026 32.92L119.626 36.8C118.826 37.1733 117.853 37.36 116.706 37.36C115.453 37.36 114.373 37.12 113.466 36.64C112.56 36.1333 111.946 35.3733 111.626 34.36C111.066 35.4 110.173 36.1733 108.946 36.68C107.746 37.16 106.466 37.4 105.106 37.4C103.053 37.4 101.413 36.9333 100.186 36C98.9863 35.04 98.3863 33.6667 98.3863 31.88C98.3863 30.44 98.8129 29.2533 99.6663 28.32C100.546 27.36 101.92 26.6933 103.786 26.32L110.706 24.88V24.32ZM105.106 31.24C105.106 31.8267 105.32 32.2667 105.746 32.56C106.173 32.8533 106.68 33 107.266 33C108.173 33 108.973 32.7333 109.666 32.2C110.36 31.64 110.706 30.7733 110.706 29.6V28.48L107.466 29.16C106.666 29.32 106.066 29.56 105.666 29.88C105.293 30.1733 105.106 30.6267 105.106 31.24ZM121.91 37V17H127.99L128.19 20.88C128.83 19.4667 129.724 18.4 130.87 17.68C132.044 16.96 133.39 16.6 134.91 16.6C136.377 16.6 137.657 16.9333 138.75 17.6C139.87 18.2667 140.697 19.2533 141.23 20.56C141.844 19.2533 142.75 18.2667 143.95 17.6C145.177 16.9333 146.51 16.6 147.95 16.6C149.924 16.6 151.55 17.2 152.83 18.4C154.137 19.5733 154.79 21.3333 154.79 23.68V37H147.99V25.24C147.99 23.96 147.737 23.0667 147.23 22.56C146.724 22.0533 146.07 21.8 145.27 21.8C144.257 21.8 143.417 22.1867 142.75 22.96C142.084 23.7067 141.75 24.8267 141.75 26.32V37H134.95V25.24C134.95 23.96 134.697 23.0667 134.19 22.56C133.684 22.0533 133.03 21.8 132.23 21.8C131.297 21.8 130.47 22.16 129.75 22.88C129.057 23.6 128.71 24.7867 128.71 26.44V37H121.91ZM168.527 37.4C165.193 37.4 162.553 36.4933 160.607 34.68C158.687 32.8667 157.727 30.3067 157.727 27C157.727 24.8133 158.167 22.9467 159.047 21.4C159.953 19.8267 161.18 18.64 162.727 17.84C164.3 17.0133 166.127 16.6 168.207 16.6C170.313 16.6 172.1 17.0133 173.567 17.84C175.06 18.64 176.193 19.76 176.967 21.2C177.74 22.6133 178.127 24.24 178.127 26.08C178.127 26.5867 178.1 27.08 178.047 27.56C178.02 28.0133 177.993 28.4 177.967 28.72H164.327C164.513 30.1067 164.967 31.1067 165.687 31.72C166.407 32.3067 167.353 32.6 168.527 32.6C169.54 32.6 170.34 32.4 170.927 32C171.54 31.6 171.993 31.04 172.287 30.32L177.727 32.12C177.353 33.2667 176.7 34.24 175.767 35.04C174.86 35.8133 173.767 36.4 172.487 36.8C171.233 37.2 169.913 37.4 168.527 37.4ZM168.207 21.36C166.047 21.36 164.767 22.6 164.367 25.08H171.687C171.393 22.6 170.233 21.36 168.207 21.36ZM192.256 37V10.6H205.096C208.349 10.6 210.749 11.2133 212.296 12.44C213.843 13.6667 214.616 15.4267 214.616 17.72C214.616 19.2133 214.176 20.5067 213.296 21.6C212.416 22.6933 211.069 23.3733 209.256 23.64V23.68C211.283 23.9467 212.789 24.6533 213.776 25.8C214.789 26.92 215.296 28.28 215.296 29.88C215.296 32.1467 214.483 33.9067 212.856 35.16C211.256 36.3867 208.869 37 205.696 37H192.256ZM198.896 21.4H203.896C206.349 21.4 207.576 20.44 207.576 18.52C207.576 16.6 206.349 15.64 203.896 15.64H198.896V21.4ZM198.896 32.16H204.536C207.016 32.16 208.256 31.1733 208.256 29.2C208.256 27.28 207.016 26.32 204.536 26.32H198.896V32.16ZM225.08 37.4C223.053 37.4 221.4 36.8533 220.12 35.76C218.84 34.6667 218.2 32.8667 218.2 30.36V17H225V28.76C225 30.04 225.253 30.9333 225.76 31.44C226.266 31.9467 226.986 32.2 227.92 32.2C228.88 32.2 229.693 31.8533 230.36 31.16C231.053 30.44 231.4 29.2933 231.4 27.72V17H238.2V37H232.12L231.92 33.24C231.28 34.6533 230.386 35.7067 229.24 36.4C228.093 37.0667 226.706 37.4 225.08 37.4ZM245.685 14.68C244.299 14.68 243.285 14.4267 242.645 13.92C242.032 13.3867 241.725 12.56 241.725 11.44C241.725 10.2933 242.032 9.46667 242.645 8.96C243.285 8.42667 244.299 8.16 245.685 8.16C247.045 8.16 248.045 8.42667 248.685 8.96C249.325 9.46667 249.645 10.2933 249.645 11.44C249.645 12.56 249.325 13.3867 248.685 13.92C248.045 14.4267 247.045 14.68 245.685 14.68ZM249.085 17V37H242.285V17H249.085ZM259.846 8.52V30.2C259.846 31.08 259.993 31.7067 260.286 32.08C260.579 32.4533 261.073 32.64 261.766 32.64C262.166 32.64 262.499 32.6133 262.766 32.56C263.033 32.5067 263.353 32.4267 263.726 32.32L263.286 36.4C262.806 36.6933 262.179 36.9333 261.406 37.12C260.633 37.3067 259.873 37.4 259.126 37.4C256.993 37.4 255.446 36.9067 254.486 35.92C253.526 34.9333 253.046 33.32 253.046 31.08V8.52H259.846ZM272.772 37.4C270.292 37.4 268.292 36.4933 266.772 34.68C265.279 32.8667 264.532 30.3333 264.532 27.08C264.532 24.84 264.879 22.9467 265.572 21.4C266.292 19.8267 267.279 18.64 268.532 17.84C269.812 17.0133 271.279 16.6 272.932 16.6C274.345 16.6 275.545 16.9467 276.532 17.64C277.545 18.3333 278.305 19.2533 278.812 20.4V8.52H285.612V37H279.532L279.292 33.08C278.732 34.4133 277.879 35.4667 276.732 36.24C275.612 37.0133 274.292 37.4 272.772 37.4ZM275.132 32.4C276.252 32.4 277.145 31.9333 277.812 31C278.479 30.0667 278.812 28.6933 278.812 26.88C278.812 25.2 278.492 23.9067 277.852 23C277.212 22.0667 276.319 21.6 275.172 21.6C273.999 21.6 273.065 22.04 272.372 22.92C271.705 23.7733 271.372 25.1333 271.372 27C271.372 28.8667 271.705 30.24 272.372 31.12C273.039 31.9733 273.959 32.4 275.132 32.4ZM299.45 37.4C296.117 37.4 293.477 36.4933 291.53 34.68C289.61 32.8667 288.65 30.3067 288.65 27C288.65 24.8133 289.09 22.9467 289.97 21.4C290.877 19.8267 292.103 18.64 293.65 17.84C295.223 17.0133 297.05 16.6 299.13 16.6C301.237 16.6 303.023 17.0133 304.49 17.84C305.983 18.64 307.117 19.76 307.89 21.2C308.663 22.6133 309.05 24.24 309.05 26.08C309.05 26.5867 309.023 27.08 308.97 27.56C308.943 28.0133 308.917 28.4 308.89 28.72H295.25C295.437 30.1067 295.89 31.1067 296.61 31.72C297.33 32.3067 298.277 32.6 299.45 32.6C300.463 32.6 301.263 32.4 301.85 32C302.463 31.6 302.917 31.04 303.21 30.32L308.65 32.12C308.277 33.2667 307.623 34.24 306.69 35.04C305.783 35.8133 304.69 36.4 303.41 36.8C302.157 37.2 300.837 37.4 299.45 37.4ZM299.13 21.36C296.97 21.36 295.69 22.6 295.29 25.08H302.61C302.317 22.6 301.157 21.36 299.13 21.36ZM312.054 37V17H318.054L318.334 21.32C318.814 19.8533 319.547 18.7067 320.534 17.88C321.547 17.0267 322.841 16.6 324.414 16.6C324.921 16.6 325.347 16.6533 325.694 16.76C326.067 16.84 326.361 16.9333 326.574 17.04L325.894 22.64C325.627 22.56 325.281 22.48 324.854 22.4C324.454 22.32 323.961 22.28 323.374 22.28C322.147 22.28 321.081 22.6667 320.174 23.44C319.294 24.2133 318.854 25.3733 318.854 26.92V37H312.054Z" fill="#161E4B"/>
</svg>
