<svg width="387" height="100" viewBox="0 0 387 100" fill="none" xmlns="http://www.w3.org/2000/svg">
<path d="M26.4549 66.124C39.0909 66.124 45.8229 59.176 45.8229 49.024C45.8229 38.656 39.0909 31.6 26.2749 31.6H3.81094V82H17.4909V66.124H26.4549ZM26.1309 43.876C29.5149 43.876 31.9989 45.748 31.9989 49.024C31.9989 52.3 29.5149 54.136 26.1309 54.136H17.4909V43.876H26.1309ZM63.6199 30.16H50.8039V82H63.6199V30.16ZM106.507 46.324H94.1946V49.528C92.0706 47.08 88.9746 45.352 84.5106 45.352C74.9346 45.352 68.2386 53.812 68.2386 64.108C68.2386 74.476 74.9346 82.936 84.4746 82.936C88.9746 82.936 92.0706 81.244 94.1946 78.868V82H106.507V46.324ZM87.7866 57.268C91.4586 57.268 94.1226 60.148 94.1226 64.144C94.1226 68.14 91.4586 71.02 87.7866 71.02C84.1146 71.02 81.4506 68.14 81.4506 64.144C81.4506 60.148 84.1146 57.268 87.7866 57.268ZM152.097 46.324H138.057L131.361 60.364L124.629 46.324H109.833L124.521 73.936L112.497 96.4H126.501L152.097 46.324ZM167.162 45.352C157.514 45.352 150.926 53.344 150.926 63.208C150.926 73.072 157.514 81.064 167.162 81.064C171.446 81.064 174.434 79.48 176.486 77.176V78.796C176.486 84.052 171.986 85.996 168.422 85.996C164.282 85.996 160.682 84.952 157.262 82.36L152.726 92.44C157.19 95.572 163.346 97.12 169.574 97.12C181.13 97.12 188.978 90.136 188.978 78.184V46.324H176.666V49.456C174.614 47.044 171.554 45.352 167.162 45.352ZM170.366 56.98C173.894 56.98 176.378 59.572 176.378 63.208C176.378 66.844 173.894 69.436 170.366 69.436C166.838 69.436 164.21 66.844 164.21 63.208C164.21 59.572 166.838 56.98 170.366 56.98ZM216.934 45.352C212.578 45.352 209.446 46.756 207.466 49.924V46.324H195.226V82H208.078V62.884C208.078 58.96 210.238 57.7 213.802 57.7C215.854 57.7 217.942 58.132 219.418 58.528L220.138 45.712C219.634 45.604 218.338 45.352 216.934 45.352ZM241.311 45.352C230.115 45.352 221.871 53.308 221.871 64.144C221.871 74.98 230.115 82.936 241.311 82.936C252.507 82.936 260.751 74.98 260.751 64.144C260.751 53.308 252.507 45.352 241.311 45.352ZM241.311 57.268C244.983 57.268 247.647 60.148 247.647 64.144C247.647 68.14 244.983 71.02 241.311 71.02C237.639 71.02 234.975 68.14 234.975 64.144C234.975 60.148 237.639 57.268 241.311 57.268ZM300.21 46.324H287.394V65.548C287.394 69.112 285.522 71.02 282.714 71.02C279.906 71.02 278.034 69.112 278.034 65.548V46.324H265.218V66.628C265.218 77.752 272.742 82.936 282.714 82.936C292.686 82.936 300.21 77.752 300.21 66.664V46.324ZM328.172 45.352C323.708 45.352 320.54 46.9 318.524 49.996V46.324H306.32V82H319.136V62.884C319.136 59.032 321.044 57.34 323.6 57.34C326.408 57.34 328.1 59.248 328.1 62.812V82H340.916V58.78C340.916 50.572 335.552 45.352 328.172 45.352ZM361.682 45.352C352.106 45.352 345.41 53.812 345.41 64.108C345.41 74.476 352.106 82.936 361.646 82.936C366.146 82.936 369.242 81.244 371.366 78.868V82H383.642V30.16H370.826V48.916C368.702 46.792 365.786 45.352 361.682 45.352ZM364.958 57.268C368.63 57.268 371.294 60.148 371.294 64.144C371.294 68.14 368.63 71.02 364.958 71.02C361.286 71.02 358.622 68.14 358.622 64.144C358.622 60.148 361.286 57.268 364.958 57.268Z" fill="#FFB43A"/>
<path d="M82.84 37.4C80.4933 37.4 78.4 36.88 76.56 35.84C74.7467 34.8 73.3333 33.2667 72.32 31.24C71.3067 29.2133 70.8 26.7467 70.8 23.84C70.8 21.0133 71.3333 18.5867 72.4 16.56C73.4667 14.5067 74.9867 12.9333 76.96 11.84C78.96 10.7467 81.3067 10.2 84 10.2C87.0133 10.2 89.4267 10.7467 91.24 11.84C93.08 12.9067 94.5067 14.6133 95.52 16.96L89.16 19.48C88.8133 18.12 88.2 17.1333 87.32 16.52C86.44 15.9067 85.3467 15.6 84.04 15.6C82.0667 15.6 80.5333 16.3067 79.44 17.72C78.3733 19.1067 77.84 21.1333 77.84 23.8C77.84 26.6267 78.3867 28.7333 79.48 30.12C80.5733 31.48 82.2133 32.16 84.4 32.16C85.92 32.16 87.1867 31.8 88.2 31.08C89.2133 30.36 89.72 29.2533 89.72 27.76V27.36H83.68V22.76H95.56V37H90.88L90.6 33.76C89.8533 34.9333 88.8267 35.84 87.52 36.48C86.24 37.0933 84.68 37.4 82.84 37.4ZM110.706 24.32C110.706 23.3867 110.44 22.6533 109.906 22.12C109.4 21.56 108.706 21.28 107.826 21.28C106.946 21.28 106.186 21.5067 105.546 21.96C104.933 22.3867 104.506 23.16 104.266 24.28L98.5063 22.92C98.8796 21 99.8663 19.4667 101.466 18.32C103.066 17.1733 105.32 16.6 108.226 16.6C111.16 16.6 113.426 17.2533 115.026 18.56C116.653 19.84 117.466 21.72 117.466 24.2V31.52C117.466 32.56 117.933 33.08 118.866 33.08C119.346 33.08 119.733 33.0267 120.026 32.92L119.626 36.8C118.826 37.1733 117.853 37.36 116.706 37.36C115.453 37.36 114.373 37.12 113.466 36.64C112.56 36.1333 111.946 35.3733 111.626 34.36C111.066 35.4 110.173 36.1733 108.946 36.68C107.746 37.16 106.466 37.4 105.106 37.4C103.053 37.4 101.413 36.9333 100.186 36C98.9863 35.04 98.3863 33.6667 98.3863 31.88C98.3863 30.44 98.8129 29.2533 99.6663 28.32C100.546 27.36 101.92 26.6933 103.786 26.32L110.706 24.88V24.32ZM105.106 31.24C105.106 31.8267 105.32 32.2667 105.746 32.56C106.173 32.8533 106.68 33 107.266 33C108.173 33 108.973 32.7333 109.666 32.2C110.36 31.64 110.706 30.7733 110.706 29.6V28.48L107.466 29.16C106.666 29.32 106.066 29.56 105.666 29.88C105.293 30.1733 105.106 30.6267 105.106 31.24ZM121.91 37V17H127.99L128.19 20.88C128.83 19.4667 129.724 18.4 130.87 17.68C132.044 16.96 133.39 16.6 134.91 16.6C136.377 16.6 137.657 16.9333 138.75 17.6C139.87 18.2667 140.697 19.2533 141.23 20.56C141.844 19.2533 142.75 18.2667 143.95 17.6C145.177 16.9333 146.51 16.6 147.95 16.6C149.924 16.6 151.55 17.2 152.83 18.4C154.137 19.5733 154.79 21.3333 154.79 23.68V37H147.99V25.24C147.99 23.96 147.737 23.0667 147.23 22.56C146.724 22.0533 146.07 21.8 145.27 21.8C144.257 21.8 143.417 22.1867 142.75 22.96C142.084 23.7067 141.75 24.8267 141.75 26.32V37H134.95V25.24C134.95 23.96 134.697 23.0667 134.19 22.56C133.684 22.0533 133.03 21.8 132.23 21.8C131.297 21.8 130.47 22.16 129.75 22.88C129.057 23.6 128.71 24.7867 128.71 26.44V37H121.91ZM168.527 37.4C165.193 37.4 162.553 36.4933 160.607 34.68C158.687 32.8667 157.727 30.3067 157.727 27C157.727 24.8133 158.167 22.9467 159.047 21.4C159.953 19.8267 161.18 18.64 162.727 17.84C164.3 17.0133 166.127 16.6 168.207 16.6C170.313 16.6 172.1 17.0133 173.567 17.84C175.06 18.64 176.193 19.76 176.967 21.2C177.74 22.6133 178.127 24.24 178.127 26.08C178.127 26.5867 178.1 27.08 178.047 27.56C178.02 28.0133 177.993 28.4 177.967 28.72H164.327C164.513 30.1067 164.967 31.1067 165.687 31.72C166.407 32.3067 167.353 32.6 168.527 32.6C169.54 32.6 170.34 32.4 170.927 32C171.54 31.6 171.993 31.04 172.287 30.32L177.727 32.12C177.353 33.2667 176.7 34.24 175.767 35.04C174.86 35.8133 173.767 36.4 172.487 36.8C171.233 37.2 169.913 37.4 168.527 37.4ZM168.207 21.36C166.047 21.36 164.767 22.6 164.367 25.08H171.687C171.393 22.6 170.233 21.36 168.207 21.36ZM192.256 37V10.6H205.096C208.349 10.6 210.749 11.2133 212.296 12.44C213.843 13.6667 214.616 15.4267 214.616 17.72C214.616 19.2133 214.176 20.5067 213.296 21.6C212.416 22.6933 211.069 23.3733 209.256 23.64V23.68C211.283 23.9467 212.789 24.6533 213.776 25.8C214.789 26.92 215.296 28.28 215.296 29.88C215.296 32.1467 214.483 33.9067 212.856 35.16C211.256 36.3867 208.869 37 205.696 37H192.256ZM198.896 21.4H203.896C206.349 21.4 207.576 20.44 207.576 18.52C207.576 16.6 206.349 15.64 203.896 15.64H198.896V21.4ZM198.896 32.16H204.536C207.016 32.16 208.256 31.1733 208.256 29.2C208.256 27.28 207.016 26.32 204.536 26.32H198.896V32.16ZM225.08 37.4C223.053 37.4 221.4 36.8533 220.12 35.76C218.84 34.6667 218.2 32.8667 218.2 30.36V17H225V28.76C225 30.04 225.253 30.9333 225.76 31.44C226.266 31.9467 226.986 32.2 227.92 32.2C228.88 32.2 229.693 31.8533 230.36 31.16C231.053 30.44 231.4 29.2933 231.4 27.72V17H238.2V37H232.12L231.92 33.24C231.28 34.6533 230.386 35.7067 229.24 36.4C228.093 37.0667 226.706 37.4 225.08 37.4ZM245.685 14.68C244.299 14.68 243.285 14.4267 242.645 13.92C242.032 13.3867 241.725 12.56 241.725 11.44C241.725 10.2933 242.032 9.46667 242.645 8.96C243.285 8.42667 244.299 8.16 245.685 8.16C247.045 8.16 248.045 8.42667 248.685 8.96C249.325 9.46667 249.645 10.2933 249.645 11.44C249.645 12.56 249.325 13.3867 248.685 13.92C248.045 14.4267 247.045 14.68 245.685 14.68ZM249.085 17V37H242.285V17H249.085ZM259.846 8.52V30.2C259.846 31.08 259.993 31.7067 260.286 32.08C260.579 32.4533 261.073 32.64 261.766 32.64C262.166 32.64 262.499 32.6133 262.766 32.56C263.033 32.5067 263.353 32.4267 263.726 32.32L263.286 36.4C262.806 36.6933 262.179 36.9333 261.406 37.12C260.633 37.3067 259.873 37.4 259.126 37.4C256.993 37.4 255.446 36.9067 254.486 35.92C253.526 34.9333 253.046 33.32 253.046 31.08V8.52H259.846ZM272.772 37.4C270.292 37.4 268.292 36.4933 266.772 34.68C265.279 32.8667 264.532 30.3333 264.532 27.08C264.532 24.84 264.879 22.9467 265.572 21.4C266.292 19.8267 267.279 18.64 268.532 17.84C269.812 17.0133 271.279 16.6 272.932 16.6C274.345 16.6 275.545 16.9467 276.532 17.64C277.545 18.3333 278.305 19.2533 278.812 20.4V8.52H285.612V37H279.532L279.292 33.08C278.732 34.4133 277.879 35.4667 276.732 36.24C275.612 37.0133 274.292 37.4 272.772 37.4ZM275.132 32.4C276.252 32.4 277.145 31.9333 277.812 31C278.479 30.0667 278.812 28.6933 278.812 26.88C278.812 25.2 278.492 23.9067 277.852 23C277.212 22.0667 276.319 21.6 275.172 21.6C273.999 21.6 273.065 22.04 272.372 22.92C271.705 23.7733 271.372 25.1333 271.372 27C271.372 28.8667 271.705 30.24 272.372 31.12C273.039 31.9733 273.959 32.4 275.132 32.4ZM299.45 37.4C296.117 37.4 293.477 36.4933 291.53 34.68C289.61 32.8667 288.65 30.3067 288.65 27C288.65 24.8133 289.09 22.9467 289.97 21.4C290.877 19.8267 292.103 18.64 293.65 17.84C295.223 17.0133 297.05 16.6 299.13 16.6C301.237 16.6 303.023 17.0133 304.49 17.84C305.983 18.64 307.117 19.76 307.89 21.2C308.663 22.6133 309.05 24.24 309.05 26.08C309.05 26.5867 309.023 27.08 308.97 27.56C308.943 28.0133 308.917 28.4 308.89 28.72H295.25C295.437 30.1067 295.89 31.1067 296.61 31.72C297.33 32.3067 298.277 32.6 299.45 32.6C300.463 32.6 301.263 32.4 301.85 32C302.463 31.6 302.917 31.04 303.21 30.32L308.65 32.12C308.277 33.2667 307.623 34.24 306.69 35.04C305.783 35.8133 304.69 36.4 303.41 36.8C302.157 37.2 300.837 37.4 299.45 37.4ZM299.13 21.36C296.97 21.36 295.69 22.6 295.29 25.08H302.61C302.317 22.6 301.157 21.36 299.13 21.36ZM312.054 37V17H318.054L318.334 21.32C318.814 19.8533 319.547 18.7067 320.534 17.88C321.547 17.0267 322.841 16.6 324.414 16.6C324.921 16.6 325.347 16.6533 325.694 16.76C326.067 16.84 326.361 16.9333 326.574 17.04L325.894 22.64C325.627 22.56 325.281 22.48 324.854 22.4C324.454 22.32 323.961 22.28 323.374 22.28C322.147 22.28 321.081 22.6667 320.174 23.44C319.294 24.2133 318.854 25.3733 318.854 26.92V37H312.054Z" fill="white"/>
</svg>
