<svg width="288" height="96" viewBox="0 0 288 96" fill="none" xmlns="http://www.w3.org/2000/svg">
<g clip-path="url(#clip0)">
<rect width="288" height="96" fill="#FEF242"/>
<rect width="96" height="240" fill="#FBD939"/>
<rect x="200" y="56" width="32" height="32" rx="6" fill="#FBD939"/>
<rect x="256" y="16" width="16" height="16" rx="4" fill="#FBD939"/>
<rect x="96" width="48" height="48" fill="#FBD939"/>
<rect x="120" y="-25" width="48" height="139" fill="#FEF242"/>
<path d="M96 8C96 3.58172 99.5817 0 104 0H136C140.418 0 144 3.58172 144 8V40C144 44.4183 140.418 48 136 48H104C99.5817 48 96 44.4183 96 40V8Z" fill="#FEF242"/>
<path d="M144 56C144 51.5817 147.582 48 152 48H192V96H152C147.582 96 144 92.4183 144 88V56Z" fill="#FEF242"/>
<path d="M96 48H136C140.418 48 144 51.5817 144 56V88C144 92.4183 140.418 96 136 96H96V48Z" fill="#FBD939"/>
<rect x="144" width="48" height="48" rx="8" fill="#FBD939"/>
<rect x="56" y="56" width="32" height="32" rx="6" fill="#FEF242"/>
<rect x="16" y="16" width="16" height="16" rx="4" fill="#FEF242"/>
</g>
<defs>
<clipPath id="clip0">
<rect width="288" height="96" fill="white"/>
</clipPath>
</defs>
</svg>
