<svg>
    <defs>
        <symbol id="logo" viewBox="0 0 454 128" fill="none" xmlns="http://www.w3.org/2000/svg">
        <path d="M155.254 3.00044L162.759 16.0005L155.254 29L147.753 16L155.254 3.00044Z" fill="currentColor"/>
        <path d="M160.448 0L167.954 13.0005H186.423L204.892 45.0005H219.899L193.924 0H160.448Z" fill="currentColor"/>
        <path d="M219.898 51.0005H204.892L197.387 64H212.393L219.898 51.0005Z" fill="currentColor"/>
        <path d="M192.192 61.0004L199.698 48.0003L184.674 21.9704L177.12 34.8851L192.192 61.0004Z" fill="currentColor"/>
        <path d="M171.891 32L171.866 31.9854L179.462 19.0005H167.954L160.449 32H171.891Z" fill="currentColor"/>
        <path d="M86.5717 0L94.0771 13.0005H109.083L101.578 0H86.5717Z" fill="currentColor"/>
        <path d="M81.3772 3.00004L88.8827 16.0007L72.1451 45.0006L64.6396 32L81.3772 3.00004Z" fill="currentColor"/>
        <path d="M77.3399 48H92.3458L109.083 19.0005H94.0773L77.3399 48Z" fill="currentColor"/>
        <path d="M308.202 0L315.707 13.0005H330.713L323.208 0H308.202Z" fill="currentColor"/>
        <path d="M303.007 3.00042L295.507 16L303.008 29L310.513 16.0005L303.007 3.00042Z" fill="currentColor"/>
        <path d="M308.202 32H323.208L330.713 19.0005H315.707L308.202 32Z" fill="currentColor"/>
        <path d="M12.6949 0L57.139 77.0005H72.1454L27.7012 0H12.6949Z" fill="currentColor"/>
        <path d="M7.50071 3.00061L51.9444 80.0003L44.4392 93.0003L0 16L7.50071 3.00061Z" fill="currentColor"/>
        <path d="M49.6339 96H64.6396L72.1444 83.0005H57.1388L49.6339 96Z" fill="currentColor"/>
        <path d="M252.794 0L297.238 77.0005H312.244L267.8 0H252.794Z" fill="currentColor"/>
        <path d="M247.6 3.00061L292.044 80.0003L284.538 93.0004L240.099 16L247.6 3.00061Z" fill="currentColor"/>
        <path d="M289.733 96H304.739L312.244 83.0005H297.238L289.733 96Z" fill="currentColor"/>
        <path d="M357.611 0L402.055 77.0005H417.061L372.617 0H357.611Z" fill="currentColor"/>
        <path d="M352.417 3.00062L344.916 16L381.854 80L363.385 112L370.886 125L396.861 80.0004L352.417 3.00062Z" fill="currentColor"/>
        <path d="M376.081 128H391.091L417.061 83.0005H402.055L376.081 128Z" fill="currentColor"/>
        <path d="M426.298 3.00046L433.799 16.0003L417.062 44.9998L409.561 32L426.298 3.00046Z" fill="currentColor"/>
        <path d="M431.492 0L438.994 13.0005H454L446.499 0H431.492Z" fill="currentColor"/>
        <path d="M453.999 19.0005H438.993L422.256 48H437.262L453.999 19.0005Z" fill="currentColor"/>
        <path d="M123.51 32L149.485 77.0005H182.96L175.455 64H156.985L138.516 32H123.51Z" fill="currentColor"/>
        <path d="M118.316 35.0006L144.29 80.0003L136.785 93.0003L110.815 48L118.316 35.0006Z" fill="currentColor"/>
        <path d="M141.98 96H175.455L182.959 83.0005H149.485L141.98 96Z" fill="currentColor"/>
        <path d="M236.636 80.0005L230.863 70.0005L225.093 80.0005L230.863 90.0004L236.636 80.0005Z" fill="currentColor"/>
        <path d="M247.6 93.0005H236.057L241.83 83.0005H253.373L247.6 93.0005Z" fill="currentColor"/>
        <path d="M253.373 77.0005H241.83L236.057 67.0005H247.6L253.373 77.0005Z" fill="currentColor"/>
        </symbol>
    </defs>
</svg>