<svg width="24" height="24" viewBox="0 0 24 24" fill="none" xmlns="http://www.w3.org/2000/svg">
<path d="M10 1C8.89546 1 8.00003 1.89543 8.00003 3V4.78059L10.297 5.39605C10.1105 5.14603 10 4.83591 10 4.5C10 3.67157 10.6716 3 11.5 3C12.3285 3 13 3.67157 13 4.5C13 5.11729 12.6272 5.6475 12.0943 5.87766L17.142 7.23017C17.5367 7.33593 17.8974 7.50508 18.2163 7.72374C18.4791 7.28991 18.9557 7 19.5 7C20.3285 7 21 7.67157 21 8.5C21 9.26708 20.4242 9.89967 19.6813 9.98916C19.7416 10.322 19.7541 10.6671 19.7132 11.015C20.4407 11.1185 21 11.7439 21 12.5C21 13.3284 20.3285 14 19.5 14C19.3159 14 19.1396 13.9668 18.9766 13.9062L18.4156 16H21C22.1046 16 23 15.1046 23 14V3C23 1.89543 22.1046 1 21 1H10ZM21 4.5C21 5.32843 20.3285 6 19.5 6C18.6716 6 18 5.32843 18 4.5C18 3.67157 18.6716 3 19.5 3C20.3285 3 21 3.67157 21 4.5Z" fill="white"/>
<path d="M3.67908 7.2463C3.96497 6.17937 5.06164 5.54621 6.12857 5.83209L16.7538 8.6791C17.8207 8.96498 18.4539 10.0617 18.168 11.1286L15.321 21.7538C15.0351 22.8207 13.9384 23.4539 12.8715 23.168L2.24629 20.321C1.17935 20.0351 0.546189 18.9384 0.832072 17.8715L3.67908 7.2463ZM8.12048 9.98929C8.3349 9.18909 7.86002 8.36658 7.05982 8.15217C6.25962 7.93776 5.43712 8.41263 5.2227 9.21283C5.00829 10.013 5.48317 10.8355 6.28336 11.0499C7.08356 11.2644 7.90607 10.7895 8.12048 9.98929ZM9.11179 15.9489C9.91199 16.1633 10.7345 15.6885 10.9489 14.8883C11.1633 14.0881 10.6884 13.2656 9.88825 13.0512C9.08805 12.8367 8.26554 13.3116 8.05113 14.1118C7.83672 14.912 8.31159 15.7345 9.11179 15.9489ZM13.7773 19.7872C13.9917 18.987 13.5169 18.1645 12.7167 17.9501C11.9165 17.7357 11.094 18.2106 10.8796 19.0108C10.6651 19.811 11.14 20.6335 11.9402 20.8479C12.7404 21.0623 13.5629 20.5874 13.7773 19.7872Z" fill="white"/>
</svg>
